<svg width="1504" height="144" viewBox="0 0 1504 144" fill="none" xmlns="http://www.w3.org/2000/svg">
<path d="M1479.69 48.1541V24.311H1455.85V0.467041H1432.01H1408.49H1384.65H1360.8H1336.96H1166.5H1142.66H1118.81H1095.3H1071.45H1047.61H1023.77H999.922H976.08H952.234H928.733H904.889H881.044H857.202H833.359H809.509H785.667H762.15H738.307H714.465H690.62H666.776H642.933H619.088H595.246H571.732H547.885H524.042H500.201H476.355H452.512H428.67H405.154H381.311H357.461H333.619H309.776H285.93H262.087H238.571H214.728H190.886H167.041H143.198H119.352H95.509H71.996H48.151V24.311H24.308V48.1541H0.464996V71.998V95.512H24.308V119.355H48.151V143.199H71.996H95.509H119.352H143.198H167.041H190.886H214.728H238.571H262.087H285.93H309.776H333.619H357.461H381.311H405.154H428.67H452.512H476.355H500.201H524.042H547.885H571.732H595.246H619.088H642.933H666.776H690.62H714.465H738.307H762.15H785.667H809.509H833.359H857.202H881.044H904.889H928.733H952.234H976.08H999.922H1023.77H1047.61H1071.45H1095.3H1118.81H1142.66H1166.5H1336.96H1360.8H1384.65H1408.49H1432.01H1455.85V119.355H1479.69V95.512H1503.54V71.998V48.1541H1479.69Z" fill="white"/>
<path d="M158.001 92.479H152.501H147.001H141.501H136.001V86.979H130.501V81.479V75.979H136.001H141.501V81.479H147.001H152.501H158.001V75.979V70.479V64.979H152.501H147.001H141.501H136.001H130.501V59.479V53.979H136.001H141.501H147.001H152.501H158.001H163.501H169.001V59.479V64.979V70.479V75.979V81.479V86.979H163.501V92.479H158.001Z" fill="#006DB7"/>
<path d="M202.001 92.479H196.501H191.001H185.501H180.001V86.979H174.501V81.479V75.979V70.479V64.979V59.479H180.001V53.979H185.501H191.001H196.501H202.001H207.501V59.479H213.001V64.979V70.479V75.979V81.479V86.979H207.501V92.479H202.001ZM196.501 81.479H202.001V75.979V70.479V64.979H196.501H191.001H185.501V70.479V75.979V81.479H191.001H196.501Z" fill="#006DB7"/>
<path d="M224.001 92.479H218.501V86.979V81.479V75.979V70.479V64.979V59.479V53.979H224.001H229.501V59.479V64.979V70.479V75.979V81.479V86.979V92.479H224.001Z" fill="#006DB7"/>
<path d="M268.001 92.479H262.501V86.979V81.479H257.001V75.979H251.501V70.479H246.001V75.979V81.479V86.979V92.479H240.501H235.001V86.979V81.479V75.979V70.479V64.979V59.479V53.979H240.501H246.001V59.479H251.501V64.979H257.001V70.479H262.501V64.979V59.479V53.979H268.001H273.501V59.479V64.979V70.479V75.979V81.479V86.979V92.479H268.001Z" fill="#006DB7"/>
<path d="M323.001 92.479H317.501V86.979V81.479V75.979V70.479V64.979H312.001H306.501V59.479V53.979H312.001H317.501H323.001H328.501H334.001H339.501V59.479V64.979H334.001H328.501V70.479V75.979V81.479V86.979V92.479H323.001Z" fill="#006DB7"/>
<path d="M378.001 92.479H372.501V86.979V81.479H367.001H361.501H356.001V86.979V92.479H350.501H345.001V86.979V81.479V75.979V70.479V64.979V59.479V53.979H350.501H356.001V59.479V64.979V70.479H361.501H367.001H372.501V64.979V59.479V53.979H378.001H383.501V59.479V64.979V70.479V75.979V81.479V86.979V92.479H378.001Z" fill="#006DB7"/>
<path d="M422.001 92.479H416.501H411.001H405.501H400.001H394.501H389.001V86.979V81.479V75.979V70.479V64.979V59.479V53.979H394.501H400.001H405.501H411.001H416.501H422.001H427.501V59.479V64.979H422.001H416.501H411.001H405.501H400.001V70.479H405.501H411.001H416.501V75.979H411.001H405.501H400.001V81.479H405.501H411.001H416.501H422.001H427.501V86.979V92.479H422.001Z" fill="#006DB7"/>
<path d="M493.501 92.479H488.001V86.979H482.501V81.479H477.001V86.979H471.501V92.479H466.001H460.501V86.979V81.479V75.979V70.479V64.979V59.479V53.979H466.001H471.501V59.479V64.979V70.479V75.979H477.001V70.479H482.501V75.979H488.001V70.479V64.979V59.479V53.979H493.501H499.001V59.479V64.979V70.479V75.979V81.479V86.979V92.479H493.501Z" fill="#006DB7"/>
<path d="M537.501 92.479H532.001V86.979V81.479H526.501H521.001H515.501V86.979V92.479H510.001H504.501V86.979V81.479V75.979V70.479V64.979V59.479H510.001V53.979H515.501H521.001H526.501H532.001H537.501V59.479H543.001V64.979V70.479V75.979V81.479V86.979V92.479H537.501ZM526.501 70.479H532.001V64.979H526.501H521.001H515.501V70.479H521.001H526.501Z" fill="#006DB7"/>
<path d="M581.501 92.479H576.001V86.979V81.479H570.501H565.001H559.501V86.979V92.479H554.001H548.501V86.979V81.479V75.979V70.479V64.979V59.479V53.979H554.001H559.501H565.001H570.501H576.001H581.501V59.479H587.001V64.979V70.479V75.979H581.501V81.479H587.001V86.979V92.479H581.501ZM570.501 70.479H576.001V64.979H570.501H565.001H559.501V70.479H565.001H570.501Z" fill="#006DB7"/>
<path d="M653.001 92.479H647.501H642.001H636.501H631.001H625.501V86.979H620.001V81.479V75.979V70.479V64.979V59.479H625.501V53.979H631.001H636.501H642.001H647.501H653.001H658.501V59.479V64.979H653.001H647.501H642.001H636.501H631.001V70.479V75.979V81.479H636.501H642.001H647.501H653.001H658.501V86.979V92.479H653.001Z" fill="#006DB7"/>
<path d="M697.001 92.479H691.501V86.979V81.479H686.001H680.501H675.001V86.979V92.479H669.501H664.001V86.979V81.479V75.979V70.479V64.979V59.479H669.501V53.979H675.001H680.501H686.001H691.501H697.001V59.479H702.501V64.979V70.479V75.979V81.479V86.979V92.479H697.001ZM686.001 70.479H691.501V64.979H686.001H680.501H675.001V70.479H680.501H686.001Z" fill="#006DB7"/>
<path d="M724.501 92.479H719.001V86.979V81.479V75.979V70.479V64.979H713.501H708.001V59.479V53.979H713.501H719.001H724.501H730.001H735.501H741.001V59.479V64.979H735.501H730.001V70.479V75.979V81.479V86.979V92.479H724.501Z" fill="#006DB7"/>
<path d="M807.001 92.479H801.501V86.979V81.479H796.001H790.501H785.001V86.979V92.479H779.501H774.001V86.979V81.479V75.979V70.479V64.979V59.479H779.501V53.979H785.001H790.501H796.001H801.501H807.001V59.479H812.501V64.979V70.479V75.979V81.479V86.979V92.479H807.001ZM796.001 70.479H801.501V64.979H796.001H790.501H785.001V70.479H790.501H796.001Z" fill="#006DB7"/>
<path d="M851.001 92.479H845.501V86.979V81.479H840.001H834.501H829.001V86.979V92.479H823.501H818.001V86.979V81.479V75.979V70.479V64.979V59.479V53.979H823.501H829.001H834.501H840.001H845.501H851.001V59.479H856.501V64.979V70.479V75.979H851.001V81.479H856.501V86.979V92.479H851.001ZM840.001 70.479H845.501V64.979H840.001H834.501H829.001V70.479H834.501H840.001Z" fill="#006DB7"/>
<path d="M878.501 75.979V70.479H873.001V75.979V81.479V86.979V92.479H867.501H862.001V86.979V81.479V75.979V70.479V64.979V59.479V53.979H867.501H873.001V59.479H878.501V64.979H884.001V59.479H889.501V53.979H895.001H900.501V59.479V64.979V70.479V75.979V81.479V86.979V92.479H895.001H889.501V86.979V81.479V75.979V70.479H884.001V75.979H878.501Z" fill="#006DB7"/>
<path d="M928.001 92.479H922.501H917.001V86.979V81.479V75.979H911.501V70.479H906.001V64.979V59.479V53.979H911.501H917.001V59.479V64.979H922.501V70.479H928.001V64.979H933.501V59.479V53.979H939.001H944.501V59.479V64.979V70.479H939.001V75.979H933.501V81.479V86.979V92.479H928.001Z" fill="#006DB7"/>
<path d="M1005 92.479H999.501H994.001H988.501H983.001V86.979H977.501V81.479V75.979V70.479V64.979V59.479H983.001V53.979H988.501H994.001H999.501H1005H1010.5V59.479H1016V64.979V70.479V75.979V81.479V86.979H1010.5V92.479H1005ZM999.501 81.479H1005V75.979V70.479V64.979H999.501H994.001H988.501V70.479V75.979V81.479H994.001H999.501Z" fill="#006DB7"/>
<path d="M1054.5 92.479H1049V86.979V81.479H1043.5V75.979H1038V70.479H1032.5V75.979V81.479V86.979V92.479H1027H1021.5V86.979V81.479V75.979V70.479V64.979V59.479V53.979H1027H1032.5V59.479H1038V64.979H1043.5V70.479H1049V64.979V59.479V53.979H1054.5H1060V59.479V64.979V70.479V75.979V81.479V86.979V92.479H1054.5Z" fill="#006DB7"/>
<path d="M1120.5 92.479H1115H1109.5H1104H1098.5H1093V86.979V81.479V75.979V70.479V64.979V59.479V53.979H1098.5H1104H1109.5H1115H1120.5H1126V59.479H1131.5V64.979V70.479V75.979V81.479V86.979H1126V92.479H1120.5ZM1115 81.479H1120.5V75.979V70.479V64.979H1115H1109.5H1104V70.479V75.979V81.479H1109.5H1115Z" fill="#006DB7"/>
<path d="M1142.5 92.479H1137V86.979V81.479V75.979V70.479V64.979V59.479V53.979H1142.5H1148V59.479V64.979V70.479V75.979V81.479V86.979V92.479H1142.5Z" fill="#006DB7"/>
<path d="M1181 92.479H1175.5H1170H1164.5H1159H1153.5V86.979V81.479H1159H1164.5H1170H1175.5H1181V75.979H1175.5H1170H1164.5H1159H1153.5V70.479V64.979V59.479H1159V53.979H1164.5H1170H1175.5H1181H1186.5H1192V59.479V64.979H1186.5H1181H1175.5H1170H1164.5V70.479H1170H1175.5H1181H1186.5H1192V75.979V81.479V86.979H1186.5V92.479H1181Z" fill="#006DB7"/>
<path d="M1230.5 92.479H1225H1219.5H1214H1208.5H1203V86.979H1197.5V81.479V75.979V70.479V64.979V59.479H1203V53.979H1208.5H1214H1219.5H1225H1230.5H1236V59.479V64.979H1230.5H1225H1219.5H1214H1208.5V70.479V75.979V81.479H1214H1219.5H1225H1230.5H1236V86.979V92.479H1230.5Z" fill="#006DB7"/>
<path d="M1269 92.479H1263.5H1258H1252.5H1247V86.979H1241.5V81.479V75.979V70.479V64.979V59.479H1247V53.979H1252.5H1258H1263.5H1269H1274.5V59.479H1280V64.979V70.479V75.979V81.479V86.979H1274.5V92.479H1269ZM1263.5 81.479H1269V75.979V70.479V64.979H1263.5H1258H1252.5V70.479V75.979V81.479H1258H1263.5Z" fill="#006DB7"/>
<path d="M1318.5 92.479H1313V86.979V81.479H1307.5H1302H1296.5V86.979V92.479H1291H1285.5V86.979V81.479V75.979V70.479V64.979V59.479V53.979H1291H1296.5H1302H1307.5H1313H1318.5V59.479H1324V64.979V70.479V75.979H1318.5V81.479H1324V86.979V92.479H1318.5ZM1307.5 70.479H1313V64.979H1307.5H1302H1296.5V70.479H1302H1307.5Z" fill="#006DB7"/>
<path d="M1357 92.479H1351.5H1346H1340.5H1335H1329.5V86.979V81.479V75.979V70.479V64.979V59.479V53.979H1335H1340.5H1346H1351.5H1357H1362.5V59.479H1368V64.979V70.479V75.979V81.479V86.979H1362.5V92.479H1357ZM1351.5 81.479H1357V75.979V70.479V64.979H1351.5H1346H1340.5V70.479V75.979V81.479H1346H1351.5Z" fill="#006DB7"/>
</svg>
