<svg width="1512" height="152" viewBox="0 0 1512 152" fill="none" xmlns="http://www.w3.org/2000/svg">
<g filter="url(#filter0_d_18_3610)">
<path d="M1483.69 48.1541V24.311H1459.85V0.467041H1436H1412.49H1388.65H1364.8H1340.96H1170.5H1146.66H1122.81H1099.3H1075.45H1051.61H1027.76H1003.92H980.079H956.233H932.732H908.888H885.043H861.201H837.358H813.508H789.666H766.149H742.306H718.464H694.619H670.775H646.932H623.087H599.245H575.731H551.884H528.042H504.2H480.354H456.511H432.669H409.153H385.31H361.46H337.618H313.775H289.929H266.086H242.57H218.727H194.885H171.04H147.197H123.351H99.508H75.995H52.15V24.311H28.307V48.1541H4.46399V71.998V95.512H28.307V119.355H52.15V143.199H75.995H99.508H123.351H147.197H171.04H194.885H218.727H242.57H266.086H289.929H313.775H337.618H361.46H385.31H409.153H432.669H456.511H480.354H504.2H528.042H551.884H575.731H599.245H623.087H646.932H670.775H694.619H718.464H742.306H766.149H789.666H813.508H837.358H861.201H885.043H908.888H932.732H956.233H980.079H1003.92H1027.76H1051.61H1075.45H1099.3H1122.81H1146.66H1170.5H1340.96H1364.8H1388.65H1412.49H1436H1459.85V119.355H1483.69V95.512H1507.54V71.998V48.1541H1483.69Z" fill="white"/>
<path d="M184 92.479H178.5H173H167.5H162V86.979H156.5V81.479V75.979H162H167.5V81.479H173H178.5H184V75.979V70.479V64.979H178.5H173H167.5H162H156.5V59.479V53.979H162H167.5H173H178.5H184H189.5H195V59.479V64.979V70.479V75.979V81.479V86.979H189.5V92.479H184Z" fill="#006DB7"/>
<path d="M228 92.479H222.5H217H211.5H206V86.979H200.5V81.479V75.979V70.479V64.979V59.479H206V53.979H211.5H217H222.5H228H233.5V59.479H239V64.979V70.479V75.979V81.479V86.979H233.5V92.479H228ZM222.5 81.479H228V75.979V70.479V64.979H222.5H217H211.5V70.479V75.979V81.479H217H222.5Z" fill="#006DB7"/>
<path d="M250 92.479H244.5V86.979V81.479V75.979V70.479V64.979V59.479V53.979H250H255.5V59.479V64.979V70.479V75.979V81.479V86.979V92.479H250Z" fill="#006DB7"/>
<path d="M294 92.479H288.5V86.979V81.479H283V75.979H277.5V70.479H272V75.979V81.479V86.979V92.479H266.5H261V86.979V81.479V75.979V70.479V64.979V59.479V53.979H266.5H272V59.479H277.5V64.979H283V70.479H288.5V64.979V59.479V53.979H294H299.5V59.479V64.979V70.479V75.979V81.479V86.979V92.479H294Z" fill="#006DB7"/>
<path d="M349 92.479H343.5V86.979V81.479V75.979V70.479V64.979H338H332.5V59.479V53.979H338H343.5H349H354.5H360H365.5V59.479V64.979H360H354.5V70.479V75.979V81.479V86.979V92.479H349Z" fill="#006DB7"/>
<path d="M404 92.479H398.5V86.979V81.479H393H387.5H382V86.979V92.479H376.5H371V86.979V81.479V75.979V70.479V64.979V59.479V53.979H376.5H382V59.479V64.979V70.479H387.5H393H398.5V64.979V59.479V53.979H404H409.5V59.479V64.979V70.479V75.979V81.479V86.979V92.479H404Z" fill="#006DB7"/>
<path d="M448 92.479H442.5H437H431.5H426H420.5H415V86.979V81.479V75.979V70.479V64.979V59.479V53.979H420.5H426H431.5H437H442.5H448H453.5V59.479V64.979H448H442.5H437H431.5H426V70.479H431.5H437H442.5V75.979H437H431.5H426V81.479H431.5H437H442.5H448H453.5V86.979V92.479H448Z" fill="#006DB7"/>
<path d="M519.5 92.479H514V86.979H508.5V81.479H503V86.979H497.5V92.479H492H486.5V86.979V81.479V75.979V70.479V64.979V59.479V53.979H492H497.5V59.479V64.979V70.479V75.979H503V70.479H508.5V75.979H514V70.479V64.979V59.479V53.979H519.5H525V59.479V64.979V70.479V75.979V81.479V86.979V92.479H519.5Z" fill="#006DB7"/>
<path d="M563.5 92.479H558V86.979V81.479H552.5H547H541.5V86.979V92.479H536H530.5V86.979V81.479V75.979V70.479V64.979V59.479H536V53.979H541.5H547H552.5H558H563.5V59.479H569V64.979V70.479V75.979V81.479V86.979V92.479H563.5ZM552.5 70.479H558V64.979H552.5H547H541.5V70.479H547H552.5Z" fill="#006DB7"/>
<path d="M607.5 92.479H602V86.979V81.479H596.5H591H585.5V86.979V92.479H580H574.5V86.979V81.479V75.979V70.479V64.979V59.479V53.979H580H585.5H591H596.5H602H607.5V59.479H613V64.979V70.479V75.979H607.5V81.479H613V86.979V92.479H607.5ZM596.5 70.479H602V64.979H596.5H591H585.5V70.479H591H596.5Z" fill="#006DB7"/>
<path d="M679 92.479H673.5H668H662.5H657H651.5V86.979H646V81.479V75.979V70.479V64.979V59.479H651.5V53.979H657H662.5H668H673.5H679H684.5V59.479V64.979H679H673.5H668H662.5H657V70.479V75.979V81.479H662.5H668H673.5H679H684.5V86.979V92.479H679Z" fill="#006DB7"/>
<path d="M723 92.479H717.5V86.979V81.479H712H706.5H701V86.979V92.479H695.5H690V86.979V81.479V75.979V70.479V64.979V59.479H695.5V53.979H701H706.5H712H717.5H723V59.479H728.5V64.979V70.479V75.979V81.479V86.979V92.479H723ZM712 70.479H717.5V64.979H712H706.5H701V70.479H706.5H712Z" fill="#006DB7"/>
<path d="M750.5 92.479H745V86.979V81.479V75.979V70.479V64.979H739.5H734V59.479V53.979H739.5H745H750.5H756H761.5H767V59.479V64.979H761.5H756V70.479V75.979V81.479V86.979V92.479H750.5Z" fill="#006DB7"/>
<path d="M833 92.479H827.5V86.979V81.479H822H816.5H811V86.979V92.479H805.5H800V86.979V81.479V75.979V70.479V64.979V59.479H805.5V53.979H811H816.5H822H827.5H833V59.479H838.5V64.979V70.479V75.979V81.479V86.979V92.479H833ZM822 70.479H827.5V64.979H822H816.5H811V70.479H816.5H822Z" fill="#006DB7"/>
<path d="M877 92.479H871.5V86.979V81.479H866H860.5H855V86.979V92.479H849.5H844V86.979V81.479V75.979V70.479V64.979V59.479V53.979H849.5H855H860.5H866H871.5H877V59.479H882.5V64.979V70.479V75.979H877V81.479H882.5V86.979V92.479H877ZM866 70.479H871.5V64.979H866H860.5H855V70.479H860.5H866Z" fill="#006DB7"/>
<path d="M904.5 75.979V70.479H899V75.979V81.479V86.979V92.479H893.5H888V86.979V81.479V75.979V70.479V64.979V59.479V53.979H893.5H899V59.479H904.5V64.979H910V59.479H915.5V53.979H921H926.5V59.479V64.979V70.479V75.979V81.479V86.979V92.479H921H915.5V86.979V81.479V75.979V70.479H910V75.979H904.5Z" fill="#006DB7"/>
<path d="M954 92.479H948.5H943V86.979V81.479V75.979H937.5V70.479H932V64.979V59.479V53.979H937.5H943V59.479V64.979H948.5V70.479H954V64.979H959.5V59.479V53.979H965H970.5V59.479V64.979V70.479H965V75.979H959.5V81.479V86.979V92.479H954Z" fill="#006DB7"/>
<path d="M1031 92.479H1025.5H1020H1014.5H1009V86.979H1003.5V81.479V75.979V70.479V64.979V59.479H1009V53.979H1014.5H1020H1025.5H1031H1036.5V59.479H1042V64.979V70.479V75.979V81.479V86.979H1036.5V92.479H1031ZM1025.5 81.479H1031V75.979V70.479V64.979H1025.5H1020H1014.5V70.479V75.979V81.479H1020H1025.5Z" fill="#006DB7"/>
<path d="M1080.5 92.479H1075V86.979V81.479H1069.5V75.979H1064V70.479H1058.5V75.979V81.479V86.979V92.479H1053H1047.5V86.979V81.479V75.979V70.479V64.979V59.479V53.979H1053H1058.5V59.479H1064V64.979H1069.5V70.479H1075V64.979V59.479V53.979H1080.5H1086V59.479V64.979V70.479V75.979V81.479V86.979V92.479H1080.5Z" fill="#006DB7"/>
<path d="M1146.5 92.479H1141H1135.5H1130H1124.5H1119V86.979V81.479V75.979V70.479V64.979V59.479V53.979H1124.5H1130H1135.5H1141H1146.5H1152V59.479H1157.5V64.979V70.479V75.979V81.479V86.979H1152V92.479H1146.5ZM1141 81.479H1146.5V75.979V70.479V64.979H1141H1135.5H1130V70.479V75.979V81.479H1135.5H1141Z" fill="#006DB7"/>
<path d="M1168.5 92.479H1163V86.979V81.479V75.979V70.479V64.979V59.479V53.979H1168.5H1174V59.479V64.979V70.479V75.979V81.479V86.979V92.479H1168.5Z" fill="#006DB7"/>
<path d="M1212.5 92.479H1207H1201.5H1196H1190.5H1185V86.979H1179.5V81.479V75.979V70.479V64.979V59.479H1185V53.979H1190.5H1196H1201.5H1207H1212.5H1218V59.479V64.979H1212.5H1207H1201.5H1196H1190.5V70.479V75.979V81.479H1196H1201.5H1207H1212.5H1218V86.979V92.479H1212.5Z" fill="#006DB7"/>
<path d="M1251 92.479H1245.5H1240H1234.5H1229V86.979H1223.5V81.479V75.979V70.479V64.979V59.479H1229V53.979H1234.5H1240H1245.5H1251H1256.5V59.479H1262V64.979V70.479V75.979V81.479V86.979H1256.5V92.479H1251ZM1245.5 81.479H1251V75.979V70.479V64.979H1245.5H1240H1234.5V70.479V75.979V81.479H1240H1245.5Z" fill="#006DB7"/>
<path d="M1300.5 92.479H1295V86.979V81.479H1289.5H1284H1278.5V86.979V92.479H1273H1267.5V86.979V81.479V75.979V70.479V64.979V59.479V53.979H1273H1278.5H1284H1289.5H1295H1300.5V59.479H1306V64.979V70.479V75.979H1300.5V81.479H1306V86.979V92.479H1300.5ZM1289.5 70.479H1295V64.979H1289.5H1284H1278.5V70.479H1284H1289.5Z" fill="#006DB7"/>
<path d="M1339 92.479H1333.5H1328H1322.5H1317H1311.5V86.979V81.479V75.979V70.479V64.979V59.479V53.979H1317H1322.5H1328H1333.5H1339H1344.5V59.479H1350V64.979V70.479V75.979V81.479V86.979H1344.5V92.479H1339ZM1333.5 81.479H1339V75.979V70.479V64.979H1333.5H1328H1322.5V70.479V75.979V81.479H1328H1333.5Z" fill="#006DB7"/>
</g>
<defs>
<filter id="filter0_d_18_3610" x="0.463989" y="0.467041" width="1511.07" height="150.732" filterUnits="userSpaceOnUse" color-interpolation-filters="sRGB">
<feFlood flood-opacity="0" result="BackgroundImageFix"/>
<feColorMatrix in="SourceAlpha" type="matrix" values="0 0 0 0 0 0 0 0 0 0 0 0 0 0 0 0 0 0 127 0" result="hardAlpha"/>
<feOffset dy="4"/>
<feGaussianBlur stdDeviation="2"/>
<feComposite in2="hardAlpha" operator="out"/>
<feColorMatrix type="matrix" values="0 0 0 0 0 0 0 0 0 0 0 0 0 0 0 0 0 0 0.25 0"/>
<feBlend mode="normal" in2="BackgroundImageFix" result="effect1_dropShadow_18_3610"/>
<feBlend mode="normal" in="SourceGraphic" in2="effect1_dropShadow_18_3610" result="shape"/>
</filter>
</defs>
</svg>
