<svg width="1394" height="84" viewBox="0 0 1394 84" fill="none" xmlns="http://www.w3.org/2000/svg">
<path d="M1319.14 0.41497C1317.6 0.42097 1304.85 0.781903 1291.41 10.7719C1291.41 10.7719 1277.06 36.5668 1277.06 68.3378C1277.06 68.3378 1285.43 82.6789 1307.44 83.3759C1307.44 83.3759 1311.13 78.9939 1314.11 75.2079C1301.47 71.4249 1296.68 63.5568 1296.68 63.5568C1296.68 63.5568 1297.68 64.254 1299.47 65.249C1299.57 65.249 1299.67 65.3489 1299.87 65.4489C1300.17 65.6479 1300.47 65.747 1300.77 65.947C1303.26 67.3419 1305.75 68.435 1308.04 69.332C1312.12 71.026 1317 72.5199 1322.68 73.6169C1330.15 75.0099 1338.91 75.509 1348.47 73.715C1353.15 72.819 1357.94 71.5248 1362.92 69.4318C1366.4 68.1378 1370.28 66.2448 1374.37 63.5568C1374.37 63.5568 1369.39 71.624 1356.34 75.309C1359.33 78.995 1362.92 83.277 1362.92 83.277C1384.92 82.58 1393.29 68.238 1393.29 68.339C1393.29 36.568 1378.95 10.7729 1378.95 10.7729C1364.71 0.116879 1351.06 0.415946 1351.06 0.415946L1349.67 2.00994C1366.6 7.08794 1374.47 14.559 1374.47 14.559C1364.11 8.98301 1353.95 6.19285 1344.49 5.09685C1337.32 4.30085 1330.44 4.49983 1324.37 5.29583C1323.77 5.29583 1323.28 5.39702 1322.68 5.49602C1319.19 5.89202 1310.73 7.08797 1300.07 11.769C1296.38 13.364 1294.19 14.558 1294.19 14.558C1294.19 14.558 1302.36 6.69104 1320.29 1.61004L1319.29 0.415946C1319.29 0.414946 1319.24 0.41397 1319.14 0.41497ZM1316.6 37.165C1322.28 37.165 1326.86 42.046 1326.76 48.12C1326.76 54.194 1322.28 59.0759 1316.6 59.0759C1311.03 59.0759 1306.45 54.194 1306.45 48.12C1306.45 42.046 1310.93 37.165 1316.6 37.165ZM1352.95 37.165C1358.53 37.165 1363.11 42.046 1363.11 48.12C1363.11 54.194 1358.63 59.0759 1352.95 59.0759C1347.38 59.0759 1342.8 54.194 1342.8 48.12C1342.8 42.046 1347.28 37.165 1352.95 37.165Z" fill="#7289DA"/>
<path d="M28.21 62.542H22.71H17.21H11.71H6.20996V57.042H0.709961V51.542V46.042H6.20996H11.71V51.542H17.21H22.71H28.21V46.042V40.542V35.042H22.71H17.21H11.71H6.20996H0.709961V29.542V24.042H6.20996H11.71H17.21H22.71H28.21H33.71H39.21V29.542V35.042V40.542V46.042V51.542V57.042H33.71V62.542H28.21Z" fill="#7289DA"/>
<path d="M72.21 62.542H66.71H61.21H55.71H50.21V57.042H44.71V51.542V46.042V40.542V35.042V29.542H50.21V24.042H55.71H61.21H66.71H72.21H77.71V29.542H83.21V35.042V40.542V46.042V51.542V57.042H77.71V62.542H72.21ZM66.71 51.542H72.21V46.042V40.542V35.042H66.71H61.21H55.71V40.542V46.042V51.542H61.21H66.71Z" fill="#7289DA"/>
<path d="M94.21 62.542H88.71V57.042V51.542V46.042V40.542V35.042V29.542V24.042H94.21H99.71V29.542V35.042V40.542V46.042V51.542V57.042V62.542H94.21Z" fill="#7289DA"/>
<path d="M138.21 62.542H132.71V57.042V51.542H127.21V46.042H121.71V40.542H116.21V46.042V51.542V57.042V62.542H110.71H105.21V57.042V51.542V46.042V40.542V35.042V29.542V24.042H110.71H116.21V29.542H121.71V35.042H127.21V40.542H132.71V35.042V29.542V24.042H138.21H143.71V29.542V35.042V40.542V46.042V51.542V57.042V62.542H138.21Z" fill="#7289DA"/>
<path d="M193.21 62.542H187.71V57.042V51.542V46.042V40.542V35.042H182.21H176.71V29.542V24.042H182.21H187.71H193.21H198.71H204.21H209.71V29.542V35.042H204.21H198.71V40.542V46.042V51.542V57.042V62.542H193.21Z" fill="#7289DA"/>
<path d="M248.21 62.542H242.71V57.042V51.542H237.21H231.71H226.21V57.042V62.542H220.71H215.21V57.042V51.542V46.042V40.542V35.042V29.542V24.042H220.71H226.21V29.542V35.042V40.542H231.71H237.21H242.71V35.042V29.542V24.042H248.21H253.71V29.542V35.042V40.542V46.042V51.542V57.042V62.542H248.21Z" fill="#7289DA"/>
<path d="M292.21 62.542H286.71H281.21H275.71H270.21H264.71H259.21V57.042V51.542V46.042V40.542V35.042V29.542V24.042H264.71H270.21H275.71H281.21H286.71H292.21H297.71V29.542V35.042H292.21H286.71H281.21H275.71H270.21V40.542H275.71H281.21H286.71V46.042H281.21H275.71H270.21V51.542H275.71H281.21H286.71H292.21H297.71V57.042V62.542H292.21Z" fill="#7289DA"/>
<path d="M363.71 62.542H358.21V57.042H352.71V51.542H347.21V57.042H341.71V62.542H336.21H330.71V57.042V51.542V46.042V40.542V35.042V29.542V24.042H336.21H341.71V29.542V35.042V40.542V46.042H347.21V40.542H352.71V46.042H358.21V40.542V35.042V29.542V24.042H363.71H369.21V29.542V35.042V40.542V46.042V51.542V57.042V62.542H363.71Z" fill="#7289DA"/>
<path d="M407.71 62.542H402.21V57.042V51.542H396.71H391.21H385.71V57.042V62.542H380.21H374.71V57.042V51.542V46.042V40.542V35.042V29.542H380.21V24.042H385.71H391.21H396.71H402.21H407.71V29.542H413.21V35.042V40.542V46.042V51.542V57.042V62.542H407.71ZM396.71 40.542H402.21V35.042H396.71H391.21H385.71V40.542H391.21H396.71Z" fill="#7289DA"/>
<path d="M451.71 62.542H446.21V57.042V51.542H440.71H435.21H429.71V57.042V62.542H424.21H418.71V57.042V51.542V46.042V40.542V35.042V29.542V24.042H424.21H429.71H435.21H440.71H446.21H451.71V29.542H457.21V35.042V40.542V46.042H451.71V51.542H457.21V57.042V62.542H451.71ZM440.71 40.542H446.21V35.042H440.71H435.21H429.71V40.542H435.21H440.71Z" fill="#7289DA"/>
<path d="M523.21 62.542H517.71H512.21H506.71H501.21H495.71V57.042H490.21V51.542V46.042V40.542V35.042V29.542H495.71V24.042H501.21H506.71H512.21H517.71H523.21H528.71V29.542V35.042H523.21H517.71H512.21H506.71H501.21V40.542V46.042V51.542H506.71H512.21H517.71H523.21H528.71V57.042V62.542H523.21Z" fill="#7289DA"/>
<path d="M567.21 62.542H561.71V57.042V51.542H556.21H550.71H545.21V57.042V62.542H539.71H534.21V57.042V51.542V46.042V40.542V35.042V29.542H539.71V24.042H545.21H550.71H556.21H561.71H567.21V29.542H572.71V35.042V40.542V46.042V51.542V57.042V62.542H567.21ZM556.21 40.542H561.71V35.042H556.21H550.71H545.21V40.542H550.71H556.21Z" fill="#7289DA"/>
<path d="M594.71 62.542H589.21V57.042V51.542V46.042V40.542V35.042H583.71H578.21V29.542V24.042H583.71H589.21H594.71H600.21H605.71H611.21V29.542V35.042H605.71H600.21V40.542V46.042V51.542V57.042V62.542H594.71Z" fill="#7289DA"/>
<path d="M677.21 62.542H671.71V57.042V51.542H666.21H660.71H655.21V57.042V62.542H649.71H644.21V57.042V51.542V46.042V40.542V35.042V29.542H649.71V24.042H655.21H660.71H666.21H671.71H677.21V29.542H682.71V35.042V40.542V46.042V51.542V57.042V62.542H677.21ZM666.21 40.542H671.71V35.042H666.21H660.71H655.21V40.542H660.71H666.21Z" fill="#7289DA"/>
<path d="M721.21 62.542H715.71V57.042V51.542H710.21H704.71H699.21V57.042V62.542H693.71H688.21V57.042V51.542V46.042V40.542V35.042V29.542V24.042H693.71H699.21H704.71H710.21H715.71H721.21V29.542H726.71V35.042V40.542V46.042H721.21V51.542H726.71V57.042V62.542H721.21ZM710.21 40.542H715.71V35.042H710.21H704.71H699.21V40.542H704.71H710.21Z" fill="#7289DA"/>
<path d="M748.71 46.042V40.542H743.21V46.042V51.542V57.042V62.542H737.71H732.21V57.042V51.542V46.042V40.542V35.042V29.542V24.042H737.71H743.21V29.542H748.71V35.042H754.21V29.542H759.71V24.042H765.21H770.71V29.542V35.042V40.542V46.042V51.542V57.042V62.542H765.21H759.71V57.042V51.542V46.042V40.542H754.21V46.042H748.71Z" fill="#7289DA"/>
<path d="M798.21 62.542H792.71H787.21V57.042V51.542V46.042H781.71V40.542H776.21V35.042V29.542V24.042H781.71H787.21V29.542V35.042H792.71V40.542H798.21V35.042H803.71V29.542V24.042H809.21H814.71V29.542V35.042V40.542H809.21V46.042H803.71V51.542V57.042V62.542H798.21Z" fill="#7289DA"/>
<path d="M875.21 62.542H869.71H864.21H858.71H853.21V57.042H847.71V51.542V46.042V40.542V35.042V29.542H853.21V24.042H858.71H864.21H869.71H875.21H880.71V29.542H886.21V35.042V40.542V46.042V51.542V57.042H880.71V62.542H875.21ZM869.71 51.542H875.21V46.042V40.542V35.042H869.71H864.21H858.71V40.542V46.042V51.542H864.21H869.71Z" fill="#7289DA"/>
<path d="M924.71 62.542H919.21V57.042V51.542H913.71V46.042H908.21V40.542H902.71V46.042V51.542V57.042V62.542H897.21H891.71V57.042V51.542V46.042V40.542V35.042V29.542V24.042H897.21H902.71V29.542H908.21V35.042H913.71V40.542H919.21V35.042V29.542V24.042H924.71H930.21V29.542V35.042V40.542V46.042V51.542V57.042V62.542H924.71Z" fill="#7289DA"/>
<path d="M990.71 62.542H985.21H979.71H974.21H968.71H963.21V57.042V51.542V46.042V40.542V35.042V29.542V24.042H968.71H974.21H979.71H985.21H990.71H996.21V29.542H1001.71V35.042V40.542V46.042V51.542V57.042H996.21V62.542H990.71ZM985.21 51.542H990.71V46.042V40.542V35.042H985.21H979.71H974.21V40.542V46.042V51.542H979.71H985.21Z" fill="#7289DA"/>
<path d="M1012.71 62.542H1007.21V57.042V51.542V46.042V40.542V35.042V29.542V24.042H1012.71H1018.21V29.542V35.042V40.542V46.042V51.542V57.042V62.542H1012.71Z" fill="#7289DA"/>
<path d="M1051.21 62.542H1045.71H1040.21H1034.71H1029.21H1023.71V57.042V51.542H1029.21H1034.71H1040.21H1045.71H1051.21V46.042H1045.71H1040.21H1034.71H1029.21H1023.71V40.542V35.042V29.542H1029.21V24.042H1034.71H1040.21H1045.71H1051.21H1056.71H1062.21V29.542V35.042H1056.71H1051.21H1045.71H1040.21H1034.71V40.542H1040.21H1045.71H1051.21H1056.71H1062.21V46.042V51.542V57.042H1056.71V62.542H1051.21Z" fill="#7289DA"/>
<path d="M1100.71 62.542H1095.21H1089.71H1084.21H1078.71H1073.21V57.042H1067.71V51.542V46.042V40.542V35.042V29.542H1073.21V24.042H1078.71H1084.21H1089.71H1095.21H1100.71H1106.21V29.542V35.042H1100.71H1095.21H1089.71H1084.21H1078.71V40.542V46.042V51.542H1084.21H1089.71H1095.21H1100.71H1106.21V57.042V62.542H1100.71Z" fill="#7289DA"/>
<path d="M1139.21 62.542H1133.71H1128.21H1122.71H1117.21V57.042H1111.71V51.542V46.042V40.542V35.042V29.542H1117.21V24.042H1122.71H1128.21H1133.71H1139.21H1144.71V29.542H1150.21V35.042V40.542V46.042V51.542V57.042H1144.71V62.542H1139.21ZM1133.71 51.542H1139.21V46.042V40.542V35.042H1133.71H1128.21H1122.71V40.542V46.042V51.542H1128.21H1133.71Z" fill="#7289DA"/>
<path d="M1188.71 62.542H1183.21V57.042V51.542H1177.71H1172.21H1166.71V57.042V62.542H1161.21H1155.71V57.042V51.542V46.042V40.542V35.042V29.542V24.042H1161.21H1166.71H1172.21H1177.71H1183.21H1188.71V29.542H1194.21V35.042V40.542V46.042H1188.71V51.542H1194.21V57.042V62.542H1188.71ZM1177.71 40.542H1183.21V35.042H1177.71H1172.21H1166.71V40.542H1172.21H1177.71Z" fill="#7289DA"/>
<path d="M1227.21 62.542H1221.71H1216.21H1210.71H1205.21H1199.71V57.042V51.542V46.042V40.542V35.042V29.542V24.042H1205.21H1210.71H1216.21H1221.71H1227.21H1232.71V29.542H1238.21V35.042V40.542V46.042V51.542V57.042H1232.71V62.542H1227.21ZM1221.71 51.542H1227.21V46.042V40.542V35.042H1221.71H1216.21H1210.71V40.542V46.042V51.542H1216.21H1221.71Z" fill="#7289DA"/>
</svg>
