<svg width="1504" height="218" viewBox="0 0 1504 218" fill="none" xmlns="http://www.w3.org/2000/svg">
<path d="M1479.69 75.1389V51.2949H1455.85V27.4509H1432H1408.49H1384.65H1360.8H1336.96H1166.5H1142.66H1118.81H1095.3H1071.45H1047.61H1023.76H999.922H976.08H952.234H928.733H904.889H881.044H857.202H833.359H809.509H785.667H762.15H738.307H714.465H690.62H666.776H642.933H619.088H595.246H571.732H547.885H524.042H500.201H476.355H452.512H428.67H405.154H381.311H357.461H333.619H309.776H285.93H262.087H238.571H214.728H190.886H167.041H143.198H119.352H95.5089H71.9958H48.1508V51.2949H24.3079V75.1389H0.464844V98.9819V122.382V122.496V146.226V169.739H24.3079V193.583H48.1508V217.427H71.9958H95.5089H119.352H143.198H167.041H190.886H214.728H238.571H262.087H285.93H309.776H333.619H357.461H381.311H405.154H428.67H452.512H476.355H500.201H524.042H547.885H571.732H595.246H619.088H642.933H666.776H690.62H714.465H738.307H762.15H785.667H809.509H833.359H857.202H881.044H904.889H928.733H952.234H976.08H999.922H1023.76H1047.61H1071.45H1095.3H1118.81H1142.66H1166.5H1336.96H1360.8H1384.65H1408.49H1432H1455.85V193.583H1479.69V169.739H1503.54V146.226V122.496V122.382V98.9819V75.1389H1479.69Z" fill="#EFD57F"/>
<path d="M1479.69 48.5161V24.6721H1455.85V0.827881H1432H1408.49H1384.65H1360.8H1336.96H1166.5H1142.66H1118.81H1095.3H1071.45H1047.61H1023.76H999.922H976.08H952.234H928.733H904.889H881.044H857.202H833.359H809.509H785.667H762.15H738.307H714.465H690.62H666.776H642.933H619.088H595.246H571.732H547.885H524.042H500.201H476.355H452.512H428.67H405.154H381.311H357.461H333.619H309.776H285.93H262.087H238.571H214.728H190.886H167.041H143.198H119.352H95.5089H71.9958H48.1508V24.6721H24.3079V48.5161H0.464844V72.3589V95.759V95.873V119.603V143.116H24.3079V166.96H48.1508V190.804H71.9958H95.5089H119.352H143.198H167.041H190.886H214.728H238.571H262.087H285.93H309.776H333.619H357.461H381.311H405.154H428.67H452.512H476.355H500.201H524.042H547.885H571.732H595.246H619.088H642.933H666.776H690.62H714.465H738.307H762.15H785.667H809.509H833.359H857.202H881.044H904.889H928.733H952.234H976.08H999.922H1023.76H1047.61H1071.45H1095.3H1118.81H1142.66H1166.5H1336.96H1360.8H1384.65H1408.49H1432H1455.85V166.96H1479.69V143.116H1503.54V119.603V95.873V95.759V72.3589V48.5161H1479.69Z" fill="white"/>
<path d="M138.802 99.9629V94.4629H133.302V99.9629V105.463V110.963V116.463H127.802H122.302V110.963V105.463V99.9629V94.4629V88.9629V83.4629V77.9629H127.802H133.302V83.4629H138.802V88.9629H144.302V83.4629H149.802V77.9629H155.302H160.802V83.4629V88.9629V94.4629V99.9629V105.463V110.963V116.463H155.302H149.802V110.963V105.463V99.9629V94.4629H144.302V99.9629H138.802Z" fill="#006DB7"/>
<path d="M171.802 116.463H166.302V110.963V105.463V99.9629V94.4629V88.9629V83.4629V77.9629H171.802H177.302V83.4629V88.9629V94.4629V99.9629V105.463V110.963V116.463H171.802Z" fill="#006DB7"/>
<path d="M215.802 116.463H210.302V110.963V105.463H204.802V99.9629H199.302V94.4629H193.802V99.9629V105.463V110.963V116.463H188.302H182.802V110.963V105.463V99.9629V94.4629V88.9629V83.4629V77.9629H188.302H193.802V83.4629H199.302V88.9629H204.802V94.4629H210.302V88.9629V83.4629V77.9629H215.802H221.302V83.4629V88.9629V94.4629V99.9629V105.463V110.963V116.463H215.802Z" fill="#006DB7"/>
<path d="M243.302 116.463H237.802V110.963V105.463V99.9629V94.4629V88.9629H232.302H226.802V83.4629V77.9629H232.302H237.802H243.302H248.802H254.302H259.802V83.4629V88.9629H254.302H248.802V94.4629V99.9629V105.463V110.963V116.463H243.302Z" fill="#006DB7"/>
<path d="M309.302 116.463H303.802V110.963V105.463V99.9629H298.302V94.4629H292.802V88.9629V83.4629V77.9629H298.302H303.802V83.4629V88.9629H309.302H314.802V83.4629V77.9629H320.302H325.802V83.4629V88.9629V94.4629H320.302V99.9629H314.802V105.463V110.963V116.463H309.302Z" fill="#006DB7"/>
<path d="M358.802 116.463H353.302H347.802H342.302H336.802V110.963H331.302V105.463V99.9629V94.4629V88.9629V83.4629H336.802V77.9629H342.302H347.802H353.302H358.802H364.302V83.4629H369.802V88.9629V94.4629V99.9629V105.463V110.963H364.302V116.463H358.802ZM353.302 105.463H358.802V99.9629V94.4629V88.9629H353.302H347.802H342.302V94.4629V99.9629V105.463H347.802H353.302Z" fill="#006DB7"/>
<path d="M402.802 116.463H397.302H391.802H386.302H380.802V110.963H375.302V105.463V99.9629V94.4629V88.9629V83.4629V77.9629H380.802H386.302V83.4629V88.9629V94.4629V99.9629V105.463H391.802H397.302H402.802V99.9629V94.4629V88.9629V83.4629V77.9629H408.302H413.802V83.4629V88.9629V94.4629V99.9629V105.463V110.963H408.302V116.463H402.802Z" fill="#006DB7"/>
<path d="M452.302 116.463H446.802V110.963V105.463H441.302H435.802H430.302V110.963V116.463H424.802H419.302V110.963V105.463V99.9629V94.4629V88.9629V83.4629V77.9629H424.802H430.302H435.802H441.302H446.802H452.302V83.4629H457.802V88.9629V94.4629V99.9629H452.302V105.463H457.802V110.963V116.463H452.302ZM441.302 94.4629H446.802V88.9629H441.302H435.802H430.302V94.4629H435.802H441.302Z" fill="#006DB7"/>
<path d="M523.802 116.463H518.302V110.963H512.802V105.463H507.302V110.963H501.802V116.463H496.302H490.802V110.963V105.463V99.9629V94.4629V88.9629V83.4629V77.9629H496.302H501.802V83.4629V88.9629V94.4629V99.9629H507.302V94.4629H512.802V99.9629H518.302V94.4629V88.9629V83.4629V77.9629H523.802H529.302V83.4629V88.9629V94.4629V99.9629V105.463V110.963V116.463H523.802Z" fill="#006DB7"/>
<path d="M567.802 116.463H562.302V110.963V105.463H556.802H551.302H545.802V110.963V116.463H540.302H534.802V110.963V105.463V99.9629V94.4629V88.9629V83.4629H540.302V77.9629H545.802H551.302H556.802H562.302H567.802V83.4629H573.302V88.9629V94.4629V99.9629V105.463V110.963V116.463H567.802ZM556.802 94.4629H562.302V88.9629H556.802H551.302H545.802V94.4629H551.302H556.802Z" fill="#006DB7"/>
<path d="M611.802 116.463H606.302V110.963V105.463H600.802H595.302H589.802V110.963V116.463H584.302H578.802V110.963V105.463V99.9629V94.4629V88.9629V83.4629V77.9629H584.302H589.802H595.302H600.802H606.302H611.802V83.4629H617.302V88.9629V94.4629V99.9629H611.802V105.463H617.302V110.963V116.463H611.802ZM600.802 94.4629H606.302V88.9629H600.802H595.302H589.802V94.4629H595.302H600.802Z" fill="#006DB7"/>
<path d="M683.302 116.463H677.802H672.302H666.802H661.302H655.802V110.963H650.302V105.463V99.9629V94.4629V88.9629V83.4629H655.802V77.9629H661.302H666.802H672.302H677.802H683.302H688.802V83.4629V88.9629H683.302H677.802H672.302H666.802H661.302V94.4629V99.9629V105.463H666.802H672.302H677.802H683.302H688.802V110.963V116.463H683.302Z" fill="#006DB7"/>
<path d="M727.302 116.463H721.802V110.963V105.463H716.302H710.802H705.302V110.963V116.463H699.802H694.302V110.963V105.463V99.9629V94.4629V88.9629V83.4629H699.802V77.9629H705.302H710.802H716.302H721.802H727.302V83.4629H732.802V88.9629V94.4629V99.9629V105.463V110.963V116.463H727.302ZM716.302 94.4629H721.802V88.9629H716.302H710.802H705.302V94.4629H710.802H716.302Z" fill="#006DB7"/>
<path d="M754.802 116.463H749.302V110.963V105.463V99.9629V94.4629V88.9629H743.802H738.302V83.4629V77.9629H743.802H749.302H754.802H760.302H765.802H771.302V83.4629V88.9629H765.802H760.302V94.4629V99.9629V105.463V110.963V116.463H754.802Z" fill="#006DB7"/>
<path d="M831.802 116.463H826.302H820.802H815.302H809.802V110.963H804.302V105.463V99.9629V94.4629V88.9629V83.4629H809.802V77.9629H815.302H820.802H826.302H831.802H837.302V83.4629H842.802V88.9629V94.4629V99.9629V105.463V110.963H837.302V116.463H831.802ZM826.302 105.463H831.802V99.9629V94.4629V88.9629H826.302H820.802H815.302V94.4629V99.9629V105.463H820.802H826.302Z" fill="#006DB7"/>
<path d="M881.302 116.463H875.802V110.963V105.463H870.302V99.9629H864.802V94.4629H859.302V99.9629V105.463V110.963V116.463H853.802H848.302V110.963V105.463V99.9629V94.4629V88.9629V83.4629V77.9629H853.802H859.302V83.4629H864.802V88.9629H870.302V94.4629H875.802V88.9629V83.4629V77.9629H881.302H886.802V83.4629V88.9629V94.4629V99.9629V105.463V110.963V116.463H881.302Z" fill="#006DB7"/>
<path d="M947.302 116.463H941.802H936.302H930.802H925.302H919.802V110.963V105.463H925.302H930.802H936.302H941.802H947.302V99.9629H941.802H936.302H930.802H925.302H919.802V94.4629V88.9629V83.4629H925.302V77.9629H930.802H936.302H941.802H947.302H952.802H958.302V83.4629V88.9629H952.802H947.302H941.802H936.302H930.802V94.4629H936.302H941.802H947.302H952.802H958.302V99.9629V105.463V110.963H952.802V116.463H947.302Z" fill="#006DB7"/>
<path d="M980.302 116.463H974.802V110.963V105.463V99.9629V94.4629V88.9629H969.302H963.802V83.4629V77.9629H969.302H974.802H980.302H985.802H991.302H996.802V83.4629V88.9629H991.302H985.802V94.4629V99.9629V105.463V110.963V116.463H980.302Z" fill="#006DB7"/>
<path d="M1035.3 116.463H1029.8V110.963V105.463H1024.3H1018.8H1013.3V110.963V116.463H1007.8H1002.3V110.963V105.463V99.9629V94.4629V88.9629V83.4629H1007.8V77.9629H1013.3H1018.8H1024.3H1029.8H1035.3V83.4629H1040.8V88.9629V94.4629V99.9629V105.463V110.963V116.463H1035.3ZM1024.3 94.4629H1029.8V88.9629H1024.3H1018.8H1013.3V94.4629H1018.8H1024.3Z" fill="#006DB7"/>
<path d="M1079.3 116.463H1073.8V110.963V105.463H1068.3H1062.8H1057.3V110.963V116.463H1051.8H1046.3V110.963V105.463V99.9629V94.4629V88.9629V83.4629V77.9629H1051.8H1057.3H1062.8H1068.3H1073.8H1079.3V83.4629H1084.8V88.9629V94.4629V99.9629H1079.3V105.463H1084.8V110.963V116.463H1079.3ZM1068.3 94.4629H1073.8V88.9629H1068.3H1062.8H1057.3V94.4629H1062.8H1068.3Z" fill="#006DB7"/>
<path d="M1123.3 116.463H1117.8H1112.3H1106.8H1101.3H1095.8V110.963H1090.3V105.463V99.9629V94.4629V88.9629V83.4629H1095.8V77.9629H1101.3H1106.8H1112.3H1117.8H1123.3H1128.8V83.4629V88.9629H1123.3H1117.8H1112.3H1106.8H1101.3V94.4629V99.9629V105.463H1106.8H1112.3H1117.8V99.9629H1112.3H1106.8V94.4629H1112.3H1117.8H1123.3H1128.8V99.9629V105.463V110.963V116.463H1123.3Z" fill="#006DB7"/>
<path d="M1167.3 116.463H1161.8V110.963V105.463H1156.3H1150.8H1145.3V110.963V116.463H1139.8H1134.3V110.963V105.463V99.9629V94.4629V88.9629V83.4629H1139.8V77.9629H1145.3H1150.8H1156.3H1161.8H1167.3V83.4629H1172.8V88.9629V94.4629V99.9629V105.463V110.963V116.463H1167.3ZM1156.3 94.4629H1161.8V88.9629H1156.3H1150.8H1145.3V94.4629H1150.8H1156.3Z" fill="#006DB7"/>
<path d="M1211.3 116.463H1205.8H1200.3H1194.8H1189.3H1183.8H1178.3V110.963V105.463H1183.8V99.9629H1189.3V94.4629H1194.8H1200.3V88.9629H1194.8H1189.3H1183.8H1178.3V83.4629V77.9629H1183.8H1189.3H1194.8H1200.3H1205.8H1211.3H1216.8V83.4629V88.9629V94.4629H1211.3H1205.8V99.9629H1200.3V105.463H1205.8H1211.3H1216.8V110.963V116.463H1211.3Z" fill="#006DB7"/>
<path d="M1255.3 116.463H1249.8H1244.3H1238.8H1233.3H1227.8H1222.3V110.963V105.463V99.9629V94.4629V88.9629V83.4629V77.9629H1227.8H1233.3H1238.8H1244.3H1249.8H1255.3H1260.8V83.4629V88.9629H1255.3H1249.8H1244.3H1238.8H1233.3V94.4629H1238.8H1244.3H1249.8V99.9629H1244.3H1238.8H1233.3V105.463H1238.8H1244.3H1249.8H1255.3H1260.8V110.963V116.463H1255.3Z" fill="#006DB7"/>
<path d="M1319.45 126.939H1310.56V135.832H1319.45V126.939Z" fill="#B3E2A8"/>
<path d="M1328.35 126.939H1319.45V135.832H1328.35V126.939Z" fill="#97DEBD"/>
<path d="M1328.35 118.047H1319.45V126.94H1328.35V118.047Z" fill="#B3E2A8"/>
<path d="M1328.35 109.154H1319.45V118.047H1328.35V109.154Z" fill="#D6DC71"/>
<path d="M1328.34 91.3701V82.4771H1319.45H1310.56H1301.67V91.3701H1310.56H1319.45H1328.34Z" fill="#E09E02"/>
<path d="M1337.24 118.047H1328.34V126.94H1337.24V118.047Z" fill="#97DEBD"/>
<path d="M1337.24 109.154H1328.34V118.047H1337.24V109.154Z" fill="#B3E2A8"/>
<path d="M1337.24 100.262H1328.34V109.155H1337.24V100.262Z" fill="#D6DC71"/>
<path d="M1337.24 91.3701H1346.13V82.4771H1355.02V73.584H1346.13H1337.24V82.4771H1328.34V91.3701H1319.45H1310.56V100.262H1319.45H1328.34H1337.24V91.3701Z" fill="#E6C977"/>
<path d="M1337.24 73.584H1328.34V82.4771H1337.24V73.584Z" fill="#E09E02"/>
<path d="M1346.13 109.154H1337.24V118.047H1346.13V109.154Z" fill="#97DEBD"/>
<path d="M1346.13 100.262H1337.24V109.155H1346.13V100.262Z" fill="#B3E2A8"/>
<path d="M1346.13 91.3701H1337.24V100.262H1346.13V91.3701Z" fill="#D6DC71"/>
<path d="M1346.13 64.6919V55.8H1337.24V64.6919V73.584H1346.13V64.6919Z" fill="#E09E02"/>
<path d="M1346.13 118.047V126.939H1355.02H1363.91V118.047V109.154H1355.02V118.047H1346.13Z" fill="#4AB5DF"/>
<path d="M1355.02 109.154H1346.13V118.047H1355.02V109.154Z" fill="#B3E2A8"/>
<path d="M1355.02 100.262H1346.13V109.155H1355.02V100.262Z" fill="#97DEBD"/>
<path d="M1355.02 91.3701H1346.13V100.262H1355.02V91.3701Z" fill="#B3E2A8"/>
<path d="M1355.02 82.4771H1346.13V91.3711H1355.02V82.4771Z" fill="#D6DC71"/>
<path d="M1355.02 135.832H1363.91H1372.81V126.939H1363.91H1355.02V135.832Z" fill="#1C9CE1"/>
<path d="M1363.91 91.3701H1355.02V100.262H1363.91V91.3701Z" fill="#97DEBD"/>
<path d="M1363.91 82.4771H1355.02V91.3711H1363.91V82.4771Z" fill="#B3E2A8"/>
<path d="M1372.81 91.3701H1363.91V100.262H1372.81V91.3701Z" fill="#B3E2A8"/>
<path d="M1372.81 82.4771H1363.91V91.3711H1372.81V82.4771Z" fill="#97DEBD"/>
<path d="M1381.7 82.4771H1372.81V91.3711H1381.7V82.4771Z" fill="#B3E2A8"/>
</svg>
