<svg width="1368" height="82" viewBox="0 0 1368 82" fill="none" xmlns="http://www.w3.org/2000/svg">
<path d="M1298.41 81.6234C1336.26 81.6234 1356.96 50.2852 1356.96 23.1084C1356.96 22.2191 1356.94 21.3322 1356.9 20.4503C1360.92 17.5469 1364.41 13.9244 1367.17 9.79988C1363.48 11.4378 1359.51 12.5417 1355.35 13.0376C1359.6 10.4931 1362.86 6.46485 1364.4 1.66321C1360.42 4.01901 1356.02 5.73085 1351.33 6.65343C1347.58 2.65597 1342.23 0.156982 1336.31 0.156982C1324.95 0.156982 1315.73 9.36696 1315.73 20.7204C1315.73 22.3337 1315.91 23.9051 1316.27 25.4099C1299.16 24.5502 1284 16.3667 1273.85 3.92284C1272.08 6.96072 1271.06 10.4918 1271.06 14.2598C1271.06 21.3938 1274.69 27.694 1280.22 31.3781C1276.84 31.2733 1273.67 30.3496 1270.9 28.8053C1270.89 28.8929 1270.89 28.9769 1270.89 29.0682C1270.89 39.028 1277.99 47.346 1287.41 49.2294C1285.68 49.7005 1283.86 49.9533 1281.98 49.9533C1280.66 49.9533 1279.37 49.8225 1278.11 49.5808C1280.73 57.7533 1288.33 63.6996 1297.33 63.8661C1290.29 69.3831 1281.42 72.6689 1271.78 72.6689C1270.12 72.6689 1268.48 72.5739 1266.87 72.3852C1275.97 78.218 1286.79 81.6222 1298.41 81.6222" fill="#1DA1F2"/>
<path d="M6.33398 61.5381H0.833984V56.0381V50.5381V45.0381V39.5381V34.0381V28.5381V23.0381H6.33398H11.834H17.334H22.834H28.334H33.834H39.334V28.5381V34.0381H33.834H28.334H22.834H17.334H11.834V39.5381H17.334H22.834H28.334V45.0381V50.5381H22.834H17.334H11.834V56.0381V61.5381H6.33398Z" fill="#1DA1F2"/>
<path d="M72.333 61.5381H66.833H61.333H55.833H50.333V56.0381H44.833V50.5381V45.0381V39.5381V34.0381V28.5381H50.333V23.0381H55.833H61.333H66.833H72.333H77.833V28.5381H83.333V34.0381V39.5381V45.0381V50.5381V56.0381H77.833V61.5381H72.333ZM66.833 50.5381H72.333V45.0381V39.5381V34.0381H66.833H61.333H55.833V39.5381V45.0381V50.5381H61.333H66.833Z" fill="#1DA1F2"/>
<path d="M121.833 61.5381H116.333H110.833H105.333H99.833H94.333H88.833V56.0381V50.5381V45.0381V39.5381V34.0381V28.5381V23.0381H94.333H99.833V28.5381V34.0381V39.5381V45.0381V50.5381H105.333H110.833H116.333H121.833H127.333V56.0381V61.5381H121.833Z" fill="#1DA1F2"/>
<path d="M165.833 61.5381H160.333H154.833H149.333H143.833H138.333H132.833V56.0381V50.5381V45.0381V39.5381V34.0381V28.5381V23.0381H138.333H143.833V28.5381V34.0381V39.5381V45.0381V50.5381H149.333H154.833H160.333H165.833H171.333V56.0381V61.5381H165.833Z" fill="#1DA1F2"/>
<path d="M204.333 61.5381H198.833H193.333H187.833H182.333V56.0381H176.833V50.5381V45.0381V39.5381V34.0381V28.5381H182.333V23.0381H187.833H193.333H198.833H204.333H209.833V28.5381H215.333V34.0381V39.5381V45.0381V50.5381V56.0381H209.833V61.5381H204.333ZM198.833 50.5381H204.333V45.0381V39.5381V34.0381H198.833H193.333H187.833V39.5381V45.0381V50.5381H193.333H198.833Z" fill="#1DA1F2"/>
<path d="M253.833 61.5381H248.333V56.0381H242.833V50.5381H237.333V56.0381H231.833V61.5381H226.333H220.833V56.0381V50.5381V45.0381V39.5381V34.0381V28.5381V23.0381H226.333H231.833V28.5381V34.0381V39.5381V45.0381H237.333V39.5381H242.833V45.0381H248.333V39.5381V34.0381V28.5381V23.0381H253.833H259.333V28.5381V34.0381V39.5381V45.0381V50.5381V56.0381V61.5381H253.833Z" fill="#1DA1F2"/>
<path d="M308.833 61.5381H303.333V56.0381V50.5381V45.0381V39.5381V34.0381H297.833H292.333V28.5381V23.0381H297.833H303.333H308.833H314.333H319.833H325.333V28.5381V34.0381H319.833H314.333V39.5381V45.0381V50.5381V56.0381V61.5381H308.833Z" fill="#1DA1F2"/>
<path d="M363.833 61.5381H358.333V56.0381V50.5381H352.833H347.333H341.833V56.0381V61.5381H336.333H330.833V56.0381V50.5381V45.0381V39.5381V34.0381V28.5381V23.0381H336.333H341.833V28.5381V34.0381V39.5381H347.333H352.833H358.333V34.0381V28.5381V23.0381H363.833H369.333V28.5381V34.0381V39.5381V45.0381V50.5381V56.0381V61.5381H363.833Z" fill="#1DA1F2"/>
<path d="M407.833 61.5381H402.333H396.833H391.333H385.833H380.333H374.833V56.0381V50.5381V45.0381V39.5381V34.0381V28.5381V23.0381H380.333H385.833H391.333H396.833H402.333H407.833H413.333V28.5381V34.0381H407.833H402.333H396.833H391.333H385.833V39.5381H391.333H396.833H402.333V45.0381H396.833H391.333H385.833V50.5381H391.333H396.833H402.333H407.833H413.333V56.0381V61.5381H407.833Z" fill="#1DA1F2"/>
<path d="M479.333 61.5381H473.833V56.0381V50.5381H468.333H462.833H457.333V56.0381V61.5381H451.833H446.333V56.0381V50.5381V45.0381V39.5381V34.0381V28.5381H451.833V23.0381H457.333H462.833H468.333H473.833H479.333V28.5381H484.833V34.0381V39.5381V45.0381V50.5381V56.0381V61.5381H479.333ZM468.333 39.5381H473.833V34.0381H468.333H462.833H457.333V39.5381H462.833H468.333Z" fill="#1DA1F2"/>
<path d="M517.833 61.5381H512.333H506.833H501.333H495.833H490.333V56.0381V50.5381V45.0381V39.5381V34.0381V28.5381V23.0381H495.833H501.333H506.833H512.333H517.833H523.333V28.5381H528.833V34.0381V39.5381V45.0381V50.5381V56.0381H523.333V61.5381H517.833ZM512.333 50.5381H517.833V45.0381V39.5381V34.0381H512.333H506.833H501.333V39.5381V45.0381V50.5381H506.833H512.333Z" fill="#1DA1F2"/>
<path d="M550.833 61.5381V56.0381H545.333V50.5381V45.0381H539.833V39.5381V34.0381H534.333V28.5381V23.0381H539.833H545.333V28.5381V34.0381H550.833V39.5381V45.0381H556.333V39.5381V34.0381H561.833V28.5381V23.0381H567.333H572.833V28.5381V34.0381H567.333V39.5381V45.0381H561.833V50.5381V56.0381H556.333V61.5381H550.833Z" fill="#1DA1F2"/>
<path d="M611.333 61.5381H605.833H600.333H594.833H589.333H583.833H578.333V56.0381V50.5381V45.0381V39.5381V34.0381V28.5381V23.0381H583.833H589.333H594.833H600.333H605.833H611.333H616.833V28.5381V34.0381H611.333H605.833H600.333H594.833H589.333V39.5381H594.833H600.333H605.833V45.0381H600.333H594.833H589.333V50.5381H594.833H600.333H605.833H611.333H616.833V56.0381V61.5381H611.333Z" fill="#1DA1F2"/>
<path d="M655.333 61.5381H649.833V56.0381V50.5381H644.333V45.0381H638.833V39.5381H633.333V45.0381V50.5381V56.0381V61.5381H627.833H622.333V56.0381V50.5381V45.0381V39.5381V34.0381V28.5381V23.0381H627.833H633.333V28.5381H638.833V34.0381H644.333V39.5381H649.833V34.0381V28.5381V23.0381H655.333H660.833V28.5381V34.0381V39.5381V45.0381V50.5381V56.0381V61.5381H655.333Z" fill="#1DA1F2"/>
<path d="M682.833 61.5381H677.333V56.0381V50.5381V45.0381V39.5381V34.0381H671.833H666.333V28.5381V23.0381H671.833H677.333H682.833H688.333H693.833H699.333V28.5381V34.0381H693.833H688.333V39.5381V45.0381V50.5381V56.0381V61.5381H682.833Z" fill="#1DA1F2"/>
<path d="M732.333 61.5381H726.833H721.333H715.833H710.333V56.0381H704.833V50.5381V45.0381V39.5381V34.0381V28.5381V23.0381H710.333H715.833V28.5381V34.0381V39.5381V45.0381V50.5381H721.333H726.833H732.333V45.0381V39.5381V34.0381V28.5381V23.0381H737.833H743.333V28.5381V34.0381V39.5381V45.0381V50.5381V56.0381H737.833V61.5381H732.333Z" fill="#1DA1F2"/>
<path d="M781.833 61.5381H776.333V56.0381V50.5381H770.833H765.333H759.833V56.0381V61.5381H754.333H748.833V56.0381V50.5381V45.0381V39.5381V34.0381V28.5381V23.0381H754.333H759.833H765.333H770.833H776.333H781.833V28.5381H787.333V34.0381V39.5381V45.0381H781.833V50.5381H787.333V56.0381V61.5381H781.833ZM770.833 39.5381H776.333V34.0381H770.833H765.333H759.833V39.5381H765.333H770.833Z" fill="#1DA1F2"/>
<path d="M825.833 61.5381H820.333H814.833H809.333H803.833H798.333H792.833V56.0381V50.5381V45.0381V39.5381V34.0381V28.5381V23.0381H798.333H803.833H809.333H814.833H820.333H825.833H831.333V28.5381V34.0381H825.833H820.333H814.833H809.333H803.833V39.5381H809.333H814.833H820.333V45.0381H814.833H809.333H803.833V50.5381H809.333H814.833H820.333H825.833H831.333V56.0381V61.5381H825.833Z" fill="#1DA1F2"/>
<path d="M891.833 61.5381H886.333H880.833H875.333H869.833V56.0381H864.333V50.5381V45.0381V39.5381V34.0381V28.5381H869.833V23.0381H875.333H880.833H886.333H891.833H897.333V28.5381H902.833V34.0381V39.5381V45.0381V50.5381V56.0381H897.333V61.5381H891.833ZM886.333 50.5381H891.833V45.0381V39.5381V34.0381H886.333H880.833H875.333V39.5381V45.0381V50.5381H880.833H886.333Z" fill="#1DA1F2"/>
<path d="M941.333 61.5381H935.833V56.0381V50.5381H930.333V45.0381H924.833V39.5381H919.333V45.0381V50.5381V56.0381V61.5381H913.833H908.333V56.0381V50.5381V45.0381V39.5381V34.0381V28.5381V23.0381H913.833H919.333V28.5381H924.833V34.0381H930.333V39.5381H935.833V34.0381V28.5381V23.0381H941.333H946.833V28.5381V34.0381V39.5381V45.0381V50.5381V56.0381V61.5381H941.333Z" fill="#1DA1F2"/>
<path d="M996.333 61.5381H990.833V56.0381V50.5381V45.0381V39.5381V34.0381H985.333H979.833V28.5381V23.0381H985.333H990.833H996.333H1001.83H1007.33H1012.83V28.5381V34.0381H1007.33H1001.83V39.5381V45.0381V50.5381V56.0381V61.5381H996.333Z" fill="#1DA1F2"/>
<path d="M1051.33 61.5381H1045.83V56.0381H1040.33V50.5381H1034.83V56.0381H1029.33V61.5381H1023.83H1018.33V56.0381V50.5381V45.0381V39.5381V34.0381V28.5381V23.0381H1023.83H1029.33V28.5381V34.0381V39.5381V45.0381H1034.83V39.5381H1040.33V45.0381H1045.83V39.5381V34.0381V28.5381V23.0381H1051.33H1056.83V28.5381V34.0381V39.5381V45.0381V50.5381V56.0381V61.5381H1051.33Z" fill="#1DA1F2"/>
<path d="M1067.83 61.5381H1062.33V56.0381V50.5381V45.0381V39.5381V34.0381V28.5381V23.0381H1067.83H1073.33V28.5381V34.0381V39.5381V45.0381V50.5381V56.0381V61.5381H1067.83Z" fill="#1DA1F2"/>
<path d="M1095.33 61.5381H1089.83V56.0381V50.5381V45.0381V39.5381V34.0381H1084.33H1078.83V28.5381V23.0381H1084.33H1089.83H1095.33H1100.83H1106.33H1111.83V28.5381V34.0381H1106.33H1100.83V39.5381V45.0381V50.5381V56.0381V61.5381H1095.33Z" fill="#1DA1F2"/>
<path d="M1133.83 61.5381H1128.33V56.0381V50.5381V45.0381V39.5381V34.0381H1122.83H1117.33V28.5381V23.0381H1122.83H1128.33H1133.83H1139.33H1144.83H1150.33V28.5381V34.0381H1144.83H1139.33V39.5381V45.0381V50.5381V56.0381V61.5381H1133.83Z" fill="#1DA1F2"/>
<path d="M1188.83 61.5381H1183.33H1177.83H1172.33H1166.83H1161.33H1155.83V56.0381V50.5381V45.0381V39.5381V34.0381V28.5381V23.0381H1161.33H1166.83H1172.33H1177.83H1183.33H1188.83H1194.33V28.5381V34.0381H1188.83H1183.33H1177.83H1172.33H1166.83V39.5381H1172.33H1177.83H1183.33V45.0381H1177.83H1172.33H1166.83V50.5381H1172.33H1177.83H1183.33H1188.83H1194.33V56.0381V61.5381H1188.83Z" fill="#1DA1F2"/>
<path d="M1232.83 61.5381H1227.33V56.0381V50.5381H1221.83H1216.33H1210.83V56.0381V61.5381H1205.33H1199.83V56.0381V50.5381V45.0381V39.5381V34.0381V28.5381V23.0381H1205.33H1210.83H1216.33H1221.83H1227.33H1232.83V28.5381H1238.33V34.0381V39.5381V45.0381H1232.83V50.5381H1238.33V56.0381V61.5381H1232.83ZM1221.83 39.5381H1227.33V34.0381H1221.83H1216.33H1210.83V39.5381H1216.33H1221.83Z" fill="#1DA1F2"/>
</svg>
