<svg width="1512" height="152" viewBox="0 0 1512 152" fill="none" xmlns="http://www.w3.org/2000/svg">
<g filter="url(#filter0_d_18_3611)">
<path d="M1483.69 48.1489V24.3059H1459.85V0.461914H1436H1412.49H1388.65H1364.8H1340.96H1170.5H1146.66H1122.81H1099.3H1075.45H1051.61H1027.76H1003.92H980.079H956.233H932.732H908.888H885.043H861.201H837.358H813.508H789.666H766.149H742.306H718.464H694.619H670.775H646.932H623.087H599.245H575.731H551.884H528.042H504.2H480.354H456.511H432.669H409.153H385.31H361.46H337.618H313.775H289.929H266.086H242.57H218.727H194.885H171.04H147.197H123.351H99.508H75.995H52.15V24.3059H28.307V48.1489H4.46399V71.9929V95.5071H28.307V119.351H52.15V143.194H75.995H99.508H123.351H147.197H171.04H194.885H218.727H242.57H266.086H289.929H313.775H337.618H361.46H385.31H409.153H432.669H456.511H480.354H504.2H528.042H551.884H575.731H599.245H623.087H646.932H670.775H694.619H718.464H742.306H766.149H789.666H813.508H837.358H861.201H885.043H908.888H932.732H956.233H980.079H1003.92H1027.76H1051.61H1075.45H1099.3H1122.81H1146.66H1170.5H1340.96H1364.8H1388.65H1412.49H1436H1459.85V119.351H1483.69V95.5071H1507.54V71.9929V48.1489H1483.69Z" fill="white"/>
<path d="M200.5 92.4751H195V86.9751V81.4751V75.9751V70.4751V64.9751V59.4751V53.9751H200.5H206H211.5H217H222.5H228H233.5V59.4751V64.9751H228H222.5H217H211.5H206V70.4751H211.5H217H222.5V75.9751V81.4751H217H211.5H206V86.9751V92.4751H200.5Z" fill="#006DB7"/>
<path d="M266.5 92.4751H261H255.5H250H244.5V86.9751H239V81.4751V75.9751V70.4751V64.9751V59.4751H244.5V53.9751H250H255.5H261H266.5H272V59.4751H277.5V64.9751V70.4751V75.9751V81.4751V86.9751H272V92.4751H266.5ZM261 81.4751H266.5V75.9751V70.4751V64.9751H261H255.5H250V70.4751V75.9751V81.4751H255.5H261Z" fill="#006DB7"/>
<path d="M316 92.4751H310.5H305H299.5H294H288.5H283V86.9751V81.4751V75.9751V70.4751V64.9751V59.4751V53.9751H288.5H294V59.4751V64.9751V70.4751V75.9751V81.4751H299.5H305H310.5H316H321.5V86.9751V92.4751H316Z" fill="#006DB7"/>
<path d="M360 92.4751H354.5H349H343.5H338H332.5H327V86.9751V81.4751V75.9751V70.4751V64.9751V59.4751V53.9751H332.5H338V59.4751V64.9751V70.4751V75.9751V81.4751H343.5H349H354.5H360H365.5V86.9751V92.4751H360Z" fill="#006DB7"/>
<path d="M398.5 92.4751H393H387.5H382H376.5V86.9751H371V81.4751V75.9751V70.4751V64.9751V59.4751H376.5V53.9751H382H387.5H393H398.5H404V59.4751H409.5V64.9751V70.4751V75.9751V81.4751V86.9751H404V92.4751H398.5ZM393 81.4751H398.5V75.9751V70.4751V64.9751H393H387.5H382V70.4751V75.9751V81.4751H387.5H393Z" fill="#006DB7"/>
<path d="M448 92.4751H442.5V86.9751H437V81.4751H431.5V86.9751H426V92.4751H420.5H415V86.9751V81.4751V75.9751V70.4751V64.9751V59.4751V53.9751H420.5H426V59.4751V64.9751V70.4751V75.9751H431.5V70.4751H437V75.9751H442.5V70.4751V64.9751V59.4751V53.9751H448H453.5V59.4751V64.9751V70.4751V75.9751V81.4751V86.9751V92.4751H448Z" fill="#006DB7"/>
<path d="M503 92.4751H497.5V86.9751V81.4751V75.9751V70.4751V64.9751H492H486.5V59.4751V53.9751H492H497.5H503H508.5H514H519.5V59.4751V64.9751H514H508.5V70.4751V75.9751V81.4751V86.9751V92.4751H503Z" fill="#006DB7"/>
<path d="M558 92.4751H552.5V86.9751V81.4751H547H541.5H536V86.9751V92.4751H530.5H525V86.9751V81.4751V75.9751V70.4751V64.9751V59.4751V53.9751H530.5H536V59.4751V64.9751V70.4751H541.5H547H552.5V64.9751V59.4751V53.9751H558H563.5V59.4751V64.9751V70.4751V75.9751V81.4751V86.9751V92.4751H558Z" fill="#006DB7"/>
<path d="M602 92.4751H596.5H591H585.5H580H574.5H569V86.9751V81.4751V75.9751V70.4751V64.9751V59.4751V53.9751H574.5H580H585.5H591H596.5H602H607.5V59.4751V64.9751H602H596.5H591H585.5H580V70.4751H585.5H591H596.5V75.9751H591H585.5H580V81.4751H585.5H591H596.5H602H607.5V86.9751V92.4751H602Z" fill="#006DB7"/>
<path d="M673.5 92.4751H668H662.5V86.9751H657V81.4751H651.5V86.9751V92.4751H646H640.5V86.9751V81.4751V75.9751V70.4751V64.9751V59.4751V53.9751H646H651.5V59.4751V64.9751H657V59.4751H662.5V53.9751H668H673.5H679V59.4751H673.5V64.9751H668V70.4751H662.5V75.9751H668V81.4751H673.5V86.9751H679V92.4751H673.5Z" fill="#006DB7"/>
<path d="M690 92.4751H684.5V86.9751V81.4751V75.9751V70.4751V64.9751V59.4751V53.9751H690H695.5V59.4751V64.9751V70.4751V75.9751V81.4751V86.9751V92.4751H690Z" fill="#006DB7"/>
<path d="M717.5 92.4751H712V86.9751V81.4751V75.9751V70.4751V64.9751H706.5H701V59.4751V53.9751H706.5H712H717.5H723H728.5H734V59.4751V64.9751H728.5H723V70.4751V75.9751V81.4751V86.9751V92.4751H717.5Z" fill="#006DB7"/>
<path d="M756 92.4751H750.5V86.9751V81.4751V75.9751V70.4751V64.9751H745H739.5V59.4751V53.9751H745H750.5H756H761.5H767H772.5V59.4751V64.9751H767H761.5V70.4751V75.9751V81.4751V86.9751V92.4751H756Z" fill="#006DB7"/>
<path d="M811 92.4751H805.5H800H794.5H789H783.5H778V86.9751V81.4751V75.9751V70.4751V64.9751V59.4751V53.9751H783.5H789H794.5H800H805.5H811H816.5V59.4751V64.9751H811H805.5H800H794.5H789V70.4751H794.5H800H805.5V75.9751H800H794.5H789V81.4751H794.5H800H805.5H811H816.5V86.9751V92.4751H811Z" fill="#006DB7"/>
<path d="M855 92.4751H849.5V86.9751V81.4751H844V75.9751H838.5V70.4751H833V75.9751V81.4751V86.9751V92.4751H827.5H822V86.9751V81.4751V75.9751V70.4751V64.9751V59.4751V53.9751H827.5H833V59.4751H838.5V64.9751H844V70.4751H849.5V64.9751V59.4751V53.9751H855H860.5V59.4751V64.9751V70.4751V75.9751V81.4751V86.9751V92.4751H855Z" fill="#006DB7"/>
<path d="M893.5 92.4751H888H882.5H877H871.5H866V86.9751V81.4751H871.5H877H882.5H888H893.5V75.9751H888H882.5H877H871.5H866V70.4751V64.9751V59.4751H871.5V53.9751H877H882.5H888H893.5H899H904.5V59.4751V64.9751H899H893.5H888H882.5H877V70.4751H882.5H888H893.5H899H904.5V75.9751V81.4751V86.9751H899V92.4751H893.5Z" fill="#006DB7"/>
<path d="M965 92.4751H959.5H954H948.5H943V86.9751H937.5V81.4751V75.9751V70.4751V64.9751V59.4751H943V53.9751H948.5H954H959.5H965H970.5V59.4751H976V64.9751V70.4751V75.9751V81.4751V86.9751H970.5V92.4751H965ZM959.5 81.4751H965V75.9751V70.4751V64.9751H959.5H954H948.5V70.4751V75.9751V81.4751H954H959.5Z" fill="#006DB7"/>
<path d="M1014.5 92.4751H1009V86.9751V81.4751H1003.5V75.9751H998V70.4751H992.5V75.9751V81.4751V86.9751V92.4751H987H981.5V86.9751V81.4751V75.9751V70.4751V64.9751V59.4751V53.9751H987H992.5V59.4751H998V64.9751H1003.5V70.4751H1009V64.9751V59.4751V53.9751H1014.5H1020V59.4751V64.9751V70.4751V75.9751V81.4751V86.9751V92.4751H1014.5Z" fill="#006DB7"/>
<path d="M1069.5 92.4751H1064V86.9751V81.4751V75.9751V70.4751V64.9751H1058.5H1053V59.4751V53.9751H1058.5H1064H1069.5H1075H1080.5H1086V59.4751V64.9751H1080.5H1075V70.4751V75.9751V81.4751V86.9751V92.4751H1069.5Z" fill="#006DB7"/>
<path d="M1124.5 92.4751H1119V86.9751H1113.5V81.4751H1108V86.9751H1102.5V92.4751H1097H1091.5V86.9751V81.4751V75.9751V70.4751V64.9751V59.4751V53.9751H1097H1102.5V59.4751V64.9751V70.4751V75.9751H1108V70.4751H1113.5V75.9751H1119V70.4751V64.9751V59.4751V53.9751H1124.5H1130V59.4751V64.9751V70.4751V75.9751V81.4751V86.9751V92.4751H1124.5Z" fill="#006DB7"/>
<path d="M1141 92.4751H1135.5V86.9751V81.4751V75.9751V70.4751V64.9751V59.4751V53.9751H1141H1146.5V59.4751V64.9751V70.4751V75.9751V81.4751V86.9751V92.4751H1141Z" fill="#006DB7"/>
<path d="M1168.5 92.4751H1163V86.9751V81.4751V75.9751V70.4751V64.9751H1157.5H1152V59.4751V53.9751H1157.5H1163H1168.5H1174H1179.5H1185V59.4751V64.9751H1179.5H1174V70.4751V75.9751V81.4751V86.9751V92.4751H1168.5Z" fill="#006DB7"/>
<path d="M1207 92.4751H1201.5V86.9751V81.4751V75.9751V70.4751V64.9751H1196H1190.5V59.4751V53.9751H1196H1201.5H1207H1212.5H1218H1223.5V59.4751V64.9751H1218H1212.5V70.4751V75.9751V81.4751V86.9751V92.4751H1207Z" fill="#006DB7"/>
<path d="M1262 92.4751H1256.5H1251H1245.5H1240H1234.5H1229V86.9751V81.4751V75.9751V70.4751V64.9751V59.4751V53.9751H1234.5H1240H1245.5H1251H1256.5H1262H1267.5V59.4751V64.9751H1262H1256.5H1251H1245.5H1240V70.4751H1245.5H1251H1256.5V75.9751H1251H1245.5H1240V81.4751H1245.5H1251H1256.5H1262H1267.5V86.9751V92.4751H1262Z" fill="#006DB7"/>
<path d="M1306 92.4751H1300.5V86.9751V81.4751H1295H1289.5H1284V86.9751V92.4751H1278.5H1273V86.9751V81.4751V75.9751V70.4751V64.9751V59.4751V53.9751H1278.5H1284H1289.5H1295H1300.5H1306V59.4751H1311.5V64.9751V70.4751V75.9751H1306V81.4751H1311.5V86.9751V92.4751H1306ZM1295 70.4751H1300.5V64.9751H1295H1289.5H1284V70.4751H1289.5H1295Z" fill="#006DB7"/>
</g>
<defs>
<filter id="filter0_d_18_3611" x="0.463989" y="0.461914" width="1511.07" height="150.732" filterUnits="userSpaceOnUse" color-interpolation-filters="sRGB">
<feFlood flood-opacity="0" result="BackgroundImageFix"/>
<feColorMatrix in="SourceAlpha" type="matrix" values="0 0 0 0 0 0 0 0 0 0 0 0 0 0 0 0 0 0 127 0" result="hardAlpha"/>
<feOffset dy="4"/>
<feGaussianBlur stdDeviation="2"/>
<feComposite in2="hardAlpha" operator="out"/>
<feColorMatrix type="matrix" values="0 0 0 0 0 0 0 0 0 0 0 0 0 0 0 0 0 0 0.25 0"/>
<feBlend mode="normal" in2="BackgroundImageFix" result="effect1_dropShadow_18_3611"/>
<feBlend mode="normal" in="SourceGraphic" in2="effect1_dropShadow_18_3611" result="shape"/>
</filter>
</defs>
</svg>
