<?xml version="1.0" encoding="UTF-8"?>
<svg id="Layer_1" data-name="Layer 1" xmlns="http://www.w3.org/2000/svg" viewBox="0 0 720 720">
  <defs>
    <style>
      .cls-1 {
        fill: none;
      }

      .cls-2, .cls-3 {
        fill: #fff;
      }

      .cls-4 {
        fill: #d43231;
      }

      .cls-3 {
        opacity: .2;
      }
    </style>
  </defs>
  <g>
    <g>
      <path class="cls-4" d="M238.48,600.24h-6.86v-6.86h-6.86v-6.86h-6.86v6.86h-6.86v6.86h-13.71v-48h13.71v27.43h6.86v-6.86h6.86v6.86h6.86v-27.43h13.71v48h-6.86Z"/>
      <path class="cls-4" d="M293.34,600.24h-6.86v-13.71h-20.57v13.71h-13.71v-41.14h6.86v-6.86h34.29v6.86h6.86v41.14h-6.86Zm-13.71-27.43h6.86v-6.86h-20.57v6.86h13.71Z"/>
      <path class="cls-4" d="M348.2,600.24h-6.86v-13.71h-20.57v13.71h-13.71v-48h41.14v6.86h6.86v20.57h-6.86v6.86h6.86v13.71h-6.86Zm-13.71-27.43h6.86v-6.86h-20.57v6.86h13.71Z"/>
      <path class="cls-4" d="M412.94,600.24h-34.29v-6.86h-6.86v-34.29h6.86v-6.86h41.14v13.71h-34.29v20.57h34.29v13.71h-6.86Z"/>
      <path class="cls-4" d="M467.8,600.24h-6.86v-13.71h-20.57v13.71h-13.71v-41.14h6.86v-6.86h34.29v6.86h6.86v41.14h-6.86Zm-13.71-27.43h6.86v-6.86h-20.57v6.86h13.71Z"/>
      <path class="cls-4" d="M502.09,600.24h-6.86v-34.29h-13.71v-13.71h41.14v13.71h-13.71v34.29h-6.86Z"/>
    </g>
    <g>
      <path class="cls-2" d="M274.89,641.56h-22.69v-9.08h22.69v-4.54h-22.69v-13.61h4.54v-4.54h27.23v9.08h-22.69v4.54h22.69v13.61h-4.54v4.54h-4.54Z"/>
      <path class="cls-2" d="M302.12,641.56h-4.54v-22.69h-9.08v-9.08h27.23v9.08h-9.08v22.69h-4.54Z"/>
      <path class="cls-2" d="M342.96,641.56h-18.15v-4.54h-4.54v-27.23h9.08v22.69h13.61v-22.69h9.08v27.23h-4.54v4.54h-4.54Z"/>
      <path class="cls-2" d="M379.27,641.56h-22.69v-31.77h27.23v4.54h4.54v22.69h-4.54v4.54h-4.54Zm-4.54-9.08h4.54v-13.61h-13.61v13.61h9.08Z"/>
      <path class="cls-2" d="M397.42,641.56h-4.54v-31.77h9.08v31.77h-4.54Z"/>
      <path class="cls-2" d="M429.19,641.56h-18.15v-4.54h-4.54v-22.69h4.54v-4.54h22.69v4.54h4.54v22.69h-4.54v4.54h-4.54Zm-4.54-9.08h4.54v-13.61h-13.61v13.61h9.08Z"/>
      <path class="cls-2" d="M465.49,641.56h-22.69v-9.08h22.69v-4.54h-22.69v-13.61h4.54v-4.54h27.23v9.08h-22.69v4.54h22.69v13.61h-4.54v4.54h-4.54Z"/>
    </g>
  </g>
  <g>
    <rect class="cls-1" x="271.97" y="132.02" width="7.65" height="7.65"/>
    <rect class="cls-1" x="264.32" y="139.68" width="7.65" height="7.65"/>
    <rect class="cls-1" x="256.66" y="147.33" width="7.65" height="7.65"/>
    <polygon class="cls-1" points="294.93 132.02 302.59 132.02 310.24 132.02 317.9 132.02 317.9 124.37 310.24 124.37 302.59 124.37 294.93 124.37 287.28 124.37 279.62 124.37 279.62 132.02 287.28 132.02 294.93 132.02"/>
    <polygon class="cls-1" points="271.97 407.6 279.62 407.6 279.62 399.94 279.62 392.29 271.97 392.29 271.97 399.94 264.32 399.94 264.32 407.6 264.32 415.25 271.97 415.25 271.97 407.6"/>
    <polygon class="cls-1" points="455.68 399.94 448.03 399.94 448.03 392.29 440.38 392.29 440.38 399.94 440.38 407.6 448.03 407.6 448.03 415.25 455.68 415.25 455.68 407.6 455.68 399.94"/>
    <polygon class="cls-1" points="249.01 170.3 249.01 177.95 256.66 177.95 256.66 170.3 256.66 162.64 256.66 154.98 249.01 154.98 249.01 162.64 249.01 170.3"/>
    <polygon class="cls-1" points="333.21 124.37 340.86 124.37 348.52 124.37 348.52 116.71 340.86 116.71 333.21 116.71 325.55 116.71 317.9 116.71 317.9 124.37 325.55 124.37 333.21 124.37"/>
    <polygon class="cls-1" points="294.93 292.77 287.28 292.77 287.28 285.12 279.62 285.12 279.62 277.46 271.97 277.46 264.32 277.46 256.66 277.46 256.66 285.12 249.01 285.12 241.35 285.12 233.7 285.12 233.7 292.77 226.04 292.77 218.38 292.77 210.73 292.77 203.07 292.77 203.07 285.12 195.42 285.12 195.42 292.77 195.42 300.43 195.42 308.08 195.42 315.74 195.42 323.39 195.42 331.05 203.07 331.05 203.07 338.7 203.07 346.36 210.73 346.36 210.73 354.01 218.38 354.01 218.38 361.67 226.04 361.67 226.04 369.32 233.7 369.32 241.35 369.32 249.01 369.32 256.66 369.32 264.32 369.32 271.97 369.32 271.97 361.67 279.62 361.67 287.28 361.67 287.28 354.01 287.28 346.36 287.28 338.7 294.93 338.7 294.93 331.05 294.93 323.39 294.93 315.74 302.59 315.74 302.59 308.08 302.59 300.43 294.93 300.43 294.93 292.77"/>
    <polygon class="cls-1" points="524.58 285.12 516.93 285.12 516.93 292.77 509.27 292.77 501.62 292.77 493.96 292.77 486.3 292.77 486.3 285.12 478.65 285.12 470.99 285.12 463.34 285.12 463.34 277.46 455.68 277.46 448.03 277.46 440.38 277.46 440.38 285.12 432.72 285.12 432.72 292.77 425.07 292.77 425.07 300.43 417.41 300.43 417.41 308.08 417.41 315.74 425.07 315.74 425.07 323.39 425.07 331.05 425.07 338.7 432.72 338.7 432.72 346.36 432.72 354.01 432.72 361.67 440.38 361.67 448.03 361.67 448.03 369.32 455.68 369.32 463.34 369.32 470.99 369.32 478.65 369.32 486.3 369.32 493.96 369.32 493.96 361.67 501.62 361.67 501.62 354.01 509.27 354.01 509.27 346.36 516.93 346.36 516.93 338.7 516.93 331.05 524.58 331.05 524.58 323.39 524.58 315.74 524.58 308.08 524.58 300.43 524.58 292.77 524.58 285.12"/>
    <polygon class="cls-1" points="394.45 116.71 386.79 116.71 379.14 116.71 371.48 116.71 371.48 124.37 379.14 124.37 386.79 124.37 394.45 124.37 402.1 124.37 402.1 116.71 394.45 116.71"/>
    <polygon class="cls-1" points="463.34 162.64 463.34 170.3 463.34 177.95 470.99 177.95 470.99 170.3 470.99 162.64 470.99 154.98 463.34 154.98 463.34 162.64"/>
    <rect class="cls-1" x="455.68" y="147.33" width="7.65" height="7.65"/>
    <polygon class="cls-1" points="402.1 415.25 402.1 422.9 402.1 430.56 402.1 438.21 409.76 438.21 409.76 430.56 409.76 422.9 409.76 415.25 409.76 407.6 409.76 399.94 402.1 399.94 402.1 407.6 402.1 415.25"/>
    <polygon class="cls-1" points="432.72 124.37 425.07 124.37 417.41 124.37 409.76 124.37 402.1 124.37 402.1 132.02 409.76 132.02 417.41 132.02 425.07 132.02 432.72 132.02 440.38 132.02 440.38 124.37 432.72 124.37"/>
    <rect class="cls-1" x="448.03" y="139.68" width="7.65" height="7.65"/>
    <rect class="cls-1" x="440.38" y="132.02" width="7.65" height="7.65"/>
    <polygon class="cls-1" points="310.24 407.6 310.24 415.25 310.24 422.9 310.24 430.56 310.24 438.21 317.9 438.21 317.9 430.56 317.9 422.9 317.9 415.25 317.9 407.6 317.9 399.94 310.24 399.94 310.24 407.6"/>
    <polygon class="cls-1" points="325.55 285.12 325.55 277.46 317.9 277.46 310.24 277.46 310.24 285.12 317.9 285.12 325.55 285.12"/>
    <polygon class="cls-1" points="325.55 376.98 325.55 384.63 333.21 384.63 333.21 376.98 333.21 369.32 325.55 369.32 325.55 376.98"/>
    <polygon class="cls-1" points="333.21 315.74 340.86 315.74 340.86 323.39 340.86 331.05 340.86 338.7 340.86 346.36 333.21 346.36 333.21 354.01 333.21 361.67 333.21 369.32 340.86 369.32 340.86 361.67 340.86 354.01 348.52 354.01 348.52 346.36 348.52 338.7 348.52 331.05 348.52 323.39 348.52 315.74 348.52 308.08 340.86 308.08 340.86 300.43 333.21 300.43 333.21 308.08 333.21 315.74"/>
    <polygon class="cls-1" points="325.55 300.43 333.21 300.43 333.21 292.77 333.21 285.12 325.55 285.12 325.55 292.77 325.55 300.43"/>
    <polygon class="cls-1" points="394.45 399.94 402.1 399.94 402.1 392.29 402.1 384.63 394.45 384.63 394.45 392.29 394.45 399.94"/>
    <path class="cls-1" d="M371.48,453.52h7.65v-7.65h7.65v-7.65h7.65v-15.31h-7.65v-15.31h-15.31v7.65h-7.66V124.37h-7.65V415.25h-7.66v-7.65h-15.31v15.31h-7.65v15.31h7.65v7.65h7.65v7.65h7.65v7.66h7.65v-22.97h7.66v22.97h7.65v-7.66Zm-15.31-22.96h-7.66v7.65h-7.65v-7.65h7.65v-7.65h7.66v7.65Zm7.65,0v-7.65h7.66v7.65h7.65v7.65h-7.65v-7.65h-7.66Z"/>
    <polygon class="cls-1" points="386.79 384.63 394.45 384.63 394.45 376.98 394.45 369.32 386.79 369.32 386.79 376.98 386.79 384.63"/>
    <polygon class="cls-1" points="317.9 392.29 317.9 399.94 325.55 399.94 325.55 392.29 325.55 384.63 317.9 384.63 317.9 392.29"/>
    <polygon class="cls-1" points="386.79 292.77 386.79 300.43 394.45 300.43 394.45 292.77 394.45 285.12 386.79 285.12 386.79 292.77"/>
    <polygon class="cls-1" points="379.14 308.08 371.48 308.08 371.48 315.74 371.48 323.39 371.48 331.05 371.48 338.7 371.48 346.36 371.48 354.01 379.14 354.01 379.14 361.67 379.14 369.32 386.79 369.32 386.79 361.67 386.79 354.01 386.79 346.36 379.14 346.36 379.14 338.7 379.14 331.05 379.14 323.39 379.14 315.74 386.79 315.74 386.79 308.08 386.79 300.43 379.14 300.43 379.14 308.08"/>
    <polygon class="cls-1" points="394.45 277.46 394.45 285.12 402.1 285.12 409.76 285.12 409.76 277.46 402.1 277.46 394.45 277.46"/>
    <polygon class="cls-3" points="187.77 277.46 187.77 285.12 187.77 292.77 187.77 300.43 195.42 300.43 195.42 292.77 195.42 285.12 203.07 285.12 203.07 292.77 210.73 292.77 218.38 292.77 226.04 292.77 233.7 292.77 233.7 285.12 241.35 285.12 249.01 285.12 256.66 285.12 256.66 277.46 264.32 277.46 271.97 277.46 279.62 277.46 279.62 285.12 287.28 285.12 287.28 292.77 294.93 292.77 294.93 300.43 302.59 300.43 302.59 292.77 302.59 285.12 302.59 277.46 302.59 269.81 294.93 269.81 294.93 262.15 294.93 254.5 287.28 254.5 287.28 246.84 287.28 239.19 279.62 239.19 279.62 231.54 271.97 231.54 271.97 223.88 264.32 223.88 256.66 223.88 249.01 223.88 241.35 223.88 233.7 223.88 233.7 231.54 241.35 231.54 241.35 239.19 241.35 246.84 233.7 246.84 233.7 254.5 226.04 254.5 218.38 254.5 210.73 254.5 203.07 254.5 195.42 254.5 187.77 254.5 187.77 262.15 187.77 269.81 187.77 277.46"/>
    <rect class="cls-2" x="203.07" y="223.88" width="7.65" height="7.65"/>
    <polygon class="cls-4" points="310.24 484.15 310.24 476.49 302.59 476.49 294.93 476.49 294.93 484.15 294.93 491.8 302.59 491.8 302.59 499.45 302.59 507.11 302.59 514.76 310.24 514.76 310.24 507.11 310.24 499.45 317.9 499.45 317.9 491.8 310.24 491.8 310.24 484.15"/>
    <path class="cls-2" d="M539.89,269.81v-7.65h-7.65v38.27h-7.65v30.62h-7.65v15.31h-7.65v7.65h-7.65v7.65h-7.66v7.65h-45.93v-7.65h-15.31v-22.96h-7.65v-22.96h-7.65v-45.93h7.65v-15.31h7.65v-15.31h7.65v-7.65h7.65v-7.65h61.24v-15.31h-7.65v-7.65h-7.66v-7.65h-7.65v-22.96h-7.65v-15.31h-7.65v22.97h-7.65v-22.97h-7.65v-7.65h-7.65v-7.65h-7.65v-7.65h-38.27v-7.65h-30.62v-7.65h30.62v7.65h38.27v7.65h7.65v7.65h7.65v7.65h7.65v7.65h7.65v-22.96h-7.65v-15.31h-7.65v-7.65h-7.65v-7.65h-7.65v-7.65h-7.65v-7.65h-22.96v-7.65h-99.51v7.65h-22.96v7.65h-7.65v7.65h-7.65v7.65h-7.65v7.65h-7.65v15.31h-7.65v22.96h7.65v-7.65h7.65v-7.65h7.65v-7.65h7.65v-7.65h38.27v-7.65h30.62v7.65h-30.62v7.65h-38.27v7.65h-7.65v7.65h-7.65v7.65h-7.65v22.97h-7.65v-22.97h-7.65v15.31h-7.65v22.96h-7.65v7.65h-7.66v7.65h-7.65v15.31h61.24v7.65h7.65v7.65h7.65v15.31h7.65v15.31h7.65v45.93h-7.65v22.96h-7.65v22.96h-15.31v7.65h-45.93v-7.65h-7.66v-7.65h-7.65v-7.65h-7.65v-15.31h-7.65v-30.62h-7.65v-38.27h-7.65v7.65h-7.65v68.9h7.65v15.31h7.65v7.65h7.65v15.31h7.65v7.65h7.65v7.65h7.65v7.65h7.66v7.65h15.31v7.65h22.96v-15.31h7.65v-7.65h7.65v15.31h-7.65v7.65h-7.65v7.65h7.65v7.65h7.65v7.65h7.65v22.97h7.65v7.65h22.96v15.31h7.65v7.65h7.65v7.65h22.96v-30.62h7.66v30.62h22.96v-7.65h7.65v-7.65h7.65v-15.31h22.96v-7.65h7.65v-22.97h7.65v-7.65h7.65v-7.65h7.65v-7.65h-7.65v-7.65h-7.65v-15.31h7.65v7.65h7.65v15.31h22.96v-7.65h15.31v-7.65h7.66v-7.65h7.65v-7.65h7.65v-7.65h7.65v-15.31h7.65v-7.65h7.65v-15.31h7.65v-68.9h-7.65Zm-130.13,15.31h-15.31v15.31h-7.65v15.31h-7.65v30.62h7.65v22.96h7.65v15.31h7.65v15.31h7.65v38.27h-7.65v-38.27h-7.65v-15.31h-7.65v-15.31h-7.65v-15.31h-7.65v-45.93h7.65v-7.65h7.65v-15.31h7.65v-7.65h15.31v7.65Zm-99.51-7.65h15.31v7.65h7.65v15.31h7.65v7.65h7.65v45.93h-7.65v15.31h-7.65v15.31h-7.65v15.31h-7.65v38.27h-7.65v-38.27h7.65v-15.31h7.65v-15.31h7.65v-22.96h7.65v-30.62h-7.65v-15.31h-7.65v-15.31h-15.31v-7.65Zm53.59,176.06v-15.31h-7.66v22.97h-7.65v-7.66h-7.65v-7.65h-7.65v-7.65h-7.65v-15.31h7.65v-15.31h15.31v7.65h7.66V124.37h7.65V415.25h7.66v-7.65h15.31v15.31h7.65v15.31h-7.65v7.65h-7.65v7.65h-7.65v7.66h-7.65v-7.66Z"/>
    <rect class="cls-2" x="509.27" y="223.88" width="7.65" height="7.65"/>
    <polygon class="cls-3" points="470.99 223.88 463.34 223.88 455.68 223.88 448.03 223.88 448.03 231.54 440.38 231.54 440.38 239.19 432.72 239.19 432.72 246.84 432.72 254.5 425.07 254.5 425.07 262.15 425.07 269.81 417.41 269.81 417.41 277.46 417.41 285.12 417.41 292.77 417.41 300.43 425.07 300.43 425.07 292.77 432.72 292.77 432.72 285.12 440.38 285.12 440.38 277.46 448.03 277.46 455.68 277.46 463.34 277.46 463.34 285.12 470.99 285.12 478.65 285.12 486.3 285.12 486.3 292.77 493.96 292.77 501.62 292.77 509.27 292.77 516.93 292.77 516.93 285.12 524.58 285.12 524.58 292.77 524.58 300.43 532.23 300.43 532.23 292.77 532.23 285.12 532.23 277.46 532.23 269.81 532.23 262.15 532.23 254.5 524.58 254.5 516.93 254.5 509.27 254.5 501.62 254.5 493.96 254.5 486.3 254.5 486.3 246.84 478.65 246.84 478.65 239.19 478.65 231.54 486.3 231.54 486.3 223.88 478.65 223.88 470.99 223.88"/>
    <polygon class="cls-4" points="409.76 476.49 409.76 484.15 409.76 491.8 402.1 491.8 402.1 499.45 409.76 499.45 409.76 507.11 409.76 514.76 417.41 514.76 417.41 507.11 417.41 499.45 417.41 491.8 425.07 491.8 425.07 484.15 425.07 476.49 417.41 476.49 409.76 476.49"/>
    <rect class="cls-4" x="371.48" y="430.56" width="7.65" height="7.65"/>
    <polygon class="cls-4" points="371.48 422.9 363.83 422.9 363.83 422.9 363.83 430.56 363.83 430.56 371.48 430.56 371.48 422.9"/>
    <polygon class="cls-4" points="348.52 422.9 348.52 430.56 356.17 430.56 356.17 430.56 356.17 422.9 356.17 422.9 348.52 422.9"/>
    <rect class="cls-4" x="340.86" y="430.56" width="7.65" height="7.65"/>
  </g>
</svg>